<svg id="LAYOUT_INSTAGRAM_upwork_Image" data-name="LAYOUT INSTAGRAM,upwork Image" xmlns="http://www.w3.org/2000/svg" xmlns:xlink="http://www.w3.org/1999/xlink" viewBox="0 0 324 259.2"><defs><style>.cls-1{fill:none;}.cls-2{fill:#ededed;}.cls-3{clip-path:url(#clip-path);}.cls-4{fill:#ff9b4a;}.cls-5{fill:#ff9a4a;}.cls-6{fill:#ff994a;}.cls-7{fill:#ff9849;}.cls-8{fill:#ff9749;}.cls-9{fill:#ff9649;}.cls-10{fill:#ff9549;}.cls-11{fill:#ff9449;}.cls-12{fill:#ff9348;}.cls-13{fill:#ff9248;}.cls-14{fill:#ff9148;}.cls-15{fill:#ff9048;}.cls-16{fill:#ff8f48;}.cls-17{fill:#ff8e48;}.cls-18{fill:#ff8d47;}.cls-19{fill:#ff8c47;}.cls-20{fill:#ff8b47;}.cls-21{fill:#ff8a47;}.cls-22{fill:#ff8947;}.cls-23{fill:#ff8847;}.cls-24{fill:#ff8746;}.cls-25{fill:#ff8646;}.cls-26{fill:#ff8546;}.cls-27{fill:#ff8446;}.cls-28{fill:#ff8346;}.cls-29{fill:#ff8246;}.cls-30{fill:#ff8145;}.cls-31{fill:#ff8045;}.cls-32{fill:#ff7f45;}.cls-33{fill:#ff7e45;}.cls-34{fill:#ff7d45;}.cls-35{fill:#ff7c45;}.cls-36{fill:#ff7b44;}.cls-37{fill:#ff7a44;}.cls-38{fill:#ff7944;}.cls-39{fill:#ff7844;}.cls-40{fill:#f74;}.cls-41{fill:#ff7644;}.cls-42{fill:#ff7443;}.cls-43{fill:#ff7343;}.cls-44{fill:#ff7243;}.cls-45{fill:#ff7143;}.cls-46{fill:#ff7043;}.cls-47{fill:#ff6f42;}.cls-48{fill:#ff6e42;}.cls-49{fill:#ff6d42;}.cls-50{fill:#ff6c42;}.cls-51{fill:#ff6b42;}.cls-52{fill:#ff6a42;}.cls-53{fill:#ff6941;}.cls-54{fill:#ff6841;}.cls-55{fill:#ff6741;}.cls-56{fill:#ff6641;}.cls-57{fill:#ff6541;}.cls-58{fill:#ff6441;}.cls-59{fill:#ff6340;}.cls-60{fill:#ff6240;}.cls-61{fill:#ff6140;}.cls-62{fill:#ff6040;}.cls-63{fill:#ff5f40;}.cls-64{fill:#ff5e40;}.cls-65{fill:#ff5d3f;}.cls-66{fill:#ff5c3f;}.cls-67{fill:#ff5b3f;}.cls-68{fill:#ff5a3f;}.cls-69{fill:#ff593f;}.cls-70{fill:#ff583f;}.cls-71{fill:#ff573e;}.cls-72{fill:#ff563e;}.cls-73{fill:#ff553e;}.cls-74{fill:#fe553f;}.cls-75{fill:#fd5540;}.cls-76{fill:#fd5441;}.cls-77{fill:#fc5442;}.cls-78{fill:#fb5443;}.cls-79{fill:#fa5444;}.cls-80{fill:#fa5345;}.cls-81{fill:#f95346;}.cls-82{fill:#f85347;}.cls-83{fill:#f75348;}.cls-84{fill:#f65249;}.cls-85{fill:#f6524a;}.cls-86{fill:#f5524b;}.cls-87{fill:#f4524c;}.cls-88{fill:#f3514d;}.cls-89{fill:#f2514e;}.cls-90{fill:#f2514f;}.cls-91{fill:#f15150;}.cls-92{fill:#f05051;}.cls-93{fill:#ef5052;}.cls-94{fill:#ef5053;}.cls-95{fill:#ee5054;}.cls-96{fill:#ed4f55;}.cls-97{fill:#ec4f56;}.cls-98{fill:#eb4f57;}.cls-99{fill:#eb4f58;}.cls-100{fill:#ea4e59;}.cls-101{fill:#e94e5a;}.cls-102{fill:#e84e5b;}.cls-103{fill:#e74e5c;}.cls-104{fill:#e74d5d;}.cls-105{fill:#e64d5e;}.cls-106{fill:#e54d5f;}.cls-107{fill:#e44d60;}.cls-108{fill:#e44c61;}.cls-109{fill:#e34c62;}.cls-110{fill:#e24c63;}.cls-111{fill:#e14c64;}.cls-112{fill:#e04b65;}.cls-113{fill:#e04b66;}.cls-114{fill:#df4b67;}.cls-115{fill:#de4b68;}.cls-116{fill:#dd4a69;}.cls-117{fill:#dd4a6a;}.cls-118{fill:#dc4a6b;}.cls-119{fill:#db4a6c;}.cls-120{fill:#da496d;}.cls-121{fill:#d9496e;}.cls-122{fill:#d9496f;}.cls-123{fill:#d84970;}.cls-124{fill:#d74871;}.cls-125{fill:#d64872;}.cls-126{fill:#d54873;}.cls-127{fill:#d54874;}.cls-128{fill:#d44775;}.cls-129{fill:#d34776;}.cls-130{fill:#d24777;}.cls-131{fill:#d24778;}.cls-132{fill:#d14679;}.cls-133{fill:#d0467a;}.cls-134{fill:#cf467b;}.cls-135{fill:#ce467c;}.cls-136{fill:#ce457d;}.cls-137{fill:#cd457e;}.cls-138{fill:#cc457f;}.cls-139{fill:#cb4580;}.cls-140{fill:#cb4581;}.cls-141{fill:#ca4483;}.cls-142{fill:#c94484;}.cls-143{fill:#c84485;}.cls-144{fill:#c74486;}.cls-145{fill:#c74387;}.cls-146{fill:#c64388;}.cls-147{fill:#c54389;}.cls-148{fill:#c4438a;}.cls-149{fill:#c3428b;}.cls-150{fill:#c3428c;}.cls-151{fill:#c2428d;}.cls-152{fill:#c1428e;}.cls-153{fill:#c0418f;}.cls-154{fill:#c04190;}.cls-155{fill:#bf4191;}.cls-156{fill:#be4192;}.cls-157{fill:#bd4093;}.cls-158{fill:#bc4094;}.cls-159{fill:#bc4095;}.cls-160{fill:#bb4096;}.cls-161{fill:#ba3f97;}.cls-162{fill:#b93f98;}.cls-163{fill:#b83f99;}.cls-164{fill:#b83f9a;}.cls-165{fill:#b73e9b;}.cls-166{fill:#b63e9c;}.cls-167{fill:#b53e9d;}.cls-168{fill:#b53e9e;}.cls-169{fill:#b43d9f;}.cls-170{fill:#b33da0;}.cls-171{fill:#b23da1;}.cls-172{fill:#b13da2;}.cls-173{fill:#b13ca3;}.cls-174{fill:#b03ca4;}.cls-175{fill:#af3ca5;}.cls-176{fill:#ae3ca6;}.cls-177{fill:#ae3ba7;}.cls-178{fill:#ad3ba8;}.cls-179{fill:#ac3ba9;}.cls-180{fill:#ab3baa;}.cls-181{fill:#aa3aab;}.cls-182{fill:#aa3aac;}.cls-183{fill:#a93aad;}.cls-184{fill:#a83aae;}.cls-185{fill:#a739af;}.cls-186{fill:#a639b0;}.cls-187{fill:#a639b1;}.cls-188{fill:#a539b2;}.cls-189{fill:#a438b3;}.cls-190{fill:#a338b4;}.cls-191{fill:#a338b5;}.cls-192{fill:#a238b6;}.cls-193{fill:#a137b7;}.cls-194{fill:#a037b8;}.cls-195{fill:#9f37b9;}.cls-196{fill:#9f37ba;}.cls-197{fill:#9e36bb;}.cls-198{fill:#9d36bc;}.cls-199{fill:#9c36bd;}.cls-200{fill:#9b36be;}.cls-201{fill:#9b35bf;}.cls-202{fill:#9a35c0;}.cls-203{fill:#9935c1;}.cls-204{fill:#9835c2;}.cls-205{fill:#9834c3;}.cls-206{fill:#9734c4;}.cls-207{fill:#9634c5;}.cls-208{fill:#9535c5;}.cls-209{fill:#9435c5;}.cls-210{fill:#9336c5;}.cls-211{fill:#9236c5;}.cls-212{fill:#9137c5;}.cls-213{fill:#9038c5;}.cls-214{fill:#413758;}.cls-215{clip-path:url(#clip-path-2);}.cls-216{fill:#ffa44b;}.cls-217{fill:#ffa34b;}.cls-218{fill:#ffa24b;}.cls-219{fill:#ffa14b;}.cls-220{fill:#ffa04b;}.cls-221{fill:#ff9f4b;}.cls-222{fill:#ff9e4a;}.cls-223{fill:#ff9d4a;}.cls-224{fill:#ff9c4a;}.cls-225{fill:#8f38c5;}.cls-226{clip-path:url(#clip-path-3);}.cls-227{fill:#4366c9;}.cls-228{fill:#4465c9;}.cls-229{fill:#4565c9;}.cls-230{fill:#4664c9;}.cls-231{fill:#4764c9;}.cls-232{fill:#4863c9;}.cls-233{fill:#4963c9;}.cls-234{fill:#4a62c9;}.cls-235{fill:#4b61c9;}.cls-236{fill:#4c61c9;}.cls-237{fill:#4d60c9;}.cls-238{fill:#4e60c8;}.cls-239{fill:#4f5fc8;}.cls-240{fill:#505ec8;}.cls-241{fill:#515ec8;}.cls-242{fill:#525dc8;}.cls-243{fill:#535dc8;}.cls-244{fill:#545cc8;}.cls-245{fill:#555bc8;}.cls-246{fill:#565bc8;}.cls-247{fill:#575ac8;}.cls-248{fill:#585ac8;}.cls-249{fill:#5959c8;}.cls-250{fill:#5a58c8;}.cls-251{fill:#5b58c8;}.cls-252{fill:#5c57c8;}.cls-253{fill:#5d57c8;}.cls-254{fill:#5e56c8;}.cls-255{fill:#5f55c8;}.cls-256{fill:#6055c8;}.cls-257{fill:#6154c8;}.cls-258{fill:#6254c8;}.cls-259{fill:#6353c7;}.cls-260{fill:#6452c7;}.cls-261{fill:#6552c7;}.cls-262{fill:#6651c7;}.cls-263{fill:#6751c7;}.cls-264{fill:#6850c7;}.cls-265{fill:#694fc7;}.cls-266{fill:#6a4fc7;}.cls-267{fill:#6b4ec7;}.cls-268{fill:#6c4dc7;}.cls-269{fill:#6d4dc7;}.cls-270{fill:#6e4cc7;}.cls-271{fill:#6f4cc7;}.cls-272{fill:#704bc7;}.cls-273{fill:#714ac7;}.cls-274{fill:#724ac7;}.cls-275{fill:#7349c7;}.cls-276{fill:#7449c7;}.cls-277{fill:#7548c7;}.cls-278{fill:#7647c7;}.cls-279{fill:#7747c6;}.cls-280{fill:#7846c6;}.cls-281{fill:#7945c6;}.cls-282{fill:#7a45c6;}.cls-283{fill:#7b44c6;}.cls-284{fill:#7c44c6;}.cls-285{fill:#7d43c6;}.cls-286{fill:#7e42c6;}.cls-287{fill:#7f42c6;}.cls-288{fill:#8041c6;}.cls-289{fill:#8140c6;}.cls-290{fill:#8240c6;}.cls-291{fill:#833fc6;}.cls-292{fill:#843fc6;}.cls-293{fill:#853ec6;}.cls-294{fill:#863dc6;}.cls-295{fill:#883dc6;}.cls-296{fill:#893cc6;}.cls-297{fill:#8a3bc6;}.cls-298{fill:#8b3bc6;}.cls-299{fill:#8c3ac5;}.cls-300{fill:#8d3ac5;}.cls-301{fill:#8e39c5;}.cls-302{fill:#ffa54c;}.cls-303{fill:#ffa64c;}.cls-304{fill:#ffa74c;}.cls-305{fill:#ffa84c;}.cls-306{fill:#ffa94c;}.cls-307{fill:#ffaa4c;}.cls-308{fill:#ffab4d;}.cls-309{fill:#ffac4d;}.cls-310{fill:#ffad4d;}.cls-311{fill:#ffae4d;}.cls-312{fill:#ffaf4d;}.cls-313{fill:#ffb04d;}.cls-314{fill:#ffb14e;}.cls-315{fill:#ffb24e;}.cls-316{fill:#ffb34e;}.cls-317{fill:#ffb54e;}.cls-318{fill:#ffb64e;}.cls-319{fill:#ffb74e;}.cls-320{fill:#ffb84f;}.cls-321{fill:#ffb94f;}.cls-322{fill:#ffba4f;}.cls-323{fill:#ffbb4f;}.cls-324{fill:#ffbc4f;}.cls-325{fill:#ffbd4f;}.cls-326{fill:#ffbe50;}.cls-327{fill:#ffbf50;}.cls-328{fill:#ffc050;}.cls-329{fill:#ffc150;}.cls-330{fill:#ffc250;}.cls-331{fill:#ffc350;}.cls-332{fill:#ffc451;}.cls-333{fill:#ffc551;}.cls-334{fill:#ffc651;}.cls-335{fill:#ffc751;}.cls-336{fill:#ffc851;}.cls-337{fill:#ffc951;}.cls-338{fill:#ffca52;}.cls-339{fill:#ffcb52;}.cls-340{fill:#ffcc52;}.cls-341{fill:#ffcd52;}.cls-342{fill:#ffce52;}.cls-343{fill:#ffcf52;}.cls-344{fill:#ffd053;}.cls-345{fill:#ffd153;}.cls-346{fill:#ffd253;}.cls-347{fill:#ffd353;}.cls-348{stroke:#413758;stroke-miterlimit:10;stroke-width:1.6px;fill:url(#linear-gradient);}</style><clipPath id="clip-path"><path class="cls-1" d="M194.05,77.46a77.61,77.61,0,0,0-20.55-7s2.84-9.43,11.28-8.75S199.66,68.54,194.05,77.46Z"/></clipPath><clipPath id="clip-path-2"><path class="cls-1" d="M134.82,76.17s-4.45-6.06-11.92-6.08A12.76,12.76,0,0,0,113,74.48c-10.3,11.94,4.11,18.18,4.11,18.18"/></clipPath><clipPath id="clip-path-3"><circle class="cls-1" cx="161.27" cy="122.62" r="54.78"/></clipPath><linearGradient id="linear-gradient" x1="235.83" y1="142.69" x2="89.33" y2="96.69" gradientUnits="userSpaceOnUse"><stop offset="0" stop-color="#ffd353"/><stop offset="0.14" stop-color="#ff9649"/><stop offset="0.29" stop-color="#ff553e"/><stop offset="0.49" stop-color="#9634c5"/><stop offset="0.95" stop-color="#4366c9"/></linearGradient></defs><title>uzai panda</title><g class="cls-3"><polygon class="cls-4" points="199.66 61.22 199.47 61.08 199.66 61.08 199.66 61.22"/><polygon class="cls-5" points="199.66 61.42 199.17 61.08 199.47 61.08 199.66 61.22 199.66 61.42"/><polygon class="cls-6" points="199.66 61.62 198.88 61.08 199.17 61.08 199.66 61.42 199.66 61.62"/><polygon class="cls-7" points="199.66 61.82 198.59 61.08 198.88 61.08 199.66 61.62 199.66 61.82"/><polygon class="cls-8" points="199.66 62.02 198.29 61.08 198.59 61.08 199.66 61.82 199.66 62.02"/><polygon class="cls-9" points="199.66 62.22 198 61.08 198.29 61.08 199.66 62.02 199.66 62.22"/><polygon class="cls-9" points="199.66 62.41 197.72 61.08 198 61.08 199.66 62.22 199.66 62.41"/><polygon class="cls-10" points="199.66 62.61 197.44 61.08 197.72 61.08 199.66 62.41 199.66 62.61"/><polygon class="cls-11" points="199.66 62.8 197.16 61.08 197.44 61.08 199.66 62.61 199.66 62.8"/><polygon class="cls-12" points="199.66 62.99 196.88 61.08 197.16 61.08 199.66 62.8 199.66 62.99"/><polygon class="cls-13" points="199.66 63.18 196.6 61.08 196.88 61.08 199.66 62.99 199.66 63.18"/><polygon class="cls-14" points="199.66 63.38 196.32 61.08 196.6 61.08 199.66 63.18 199.66 63.38"/><polygon class="cls-15" points="199.66 63.57 196.04 61.08 196.32 61.08 199.66 63.38 199.66 63.57"/><polygon class="cls-16" points="199.66 63.76 195.76 61.08 196.04 61.08 199.66 63.57 199.66 63.76"/><polygon class="cls-17" points="199.66 63.95 195.48 61.08 195.76 61.08 199.66 63.76 199.66 63.95"/><polygon class="cls-18" points="199.66 64.14 195.2 61.08 195.48 61.08 199.66 63.95 199.66 64.14"/><polygon class="cls-19" points="199.66 64.34 194.92 61.08 195.2 61.08 199.66 64.14 199.66 64.34"/><polygon class="cls-20" points="199.66 64.53 194.64 61.08 194.92 61.08 199.66 64.34 199.66 64.53"/><polygon class="cls-21" points="199.66 64.72 194.36 61.08 194.64 61.08 199.66 64.53 199.66 64.72"/><polygon class="cls-22" points="199.66 64.92 194.07 61.08 194.36 61.08 199.66 64.72 199.66 64.92"/><polygon class="cls-23" points="199.66 65.11 193.79 61.08 194.07 61.08 199.66 64.92 199.66 65.11"/><polygon class="cls-24" points="199.66 65.3 193.51 61.08 193.79 61.08 199.66 65.11 199.66 65.3"/><polygon class="cls-25" points="199.66 65.49 193.24 61.08 193.51 61.08 199.66 65.3 199.66 65.49"/><polygon class="cls-26" points="199.66 65.69 192.96 61.08 193.24 61.08 199.66 65.49 199.66 65.69"/><polygon class="cls-27" points="199.66 65.88 192.67 61.08 192.96 61.08 199.66 65.69 199.66 65.88"/><polygon class="cls-28" points="199.66 66.07 192.39 61.08 192.67 61.08 199.66 65.88 199.66 66.07"/><polygon class="cls-29" points="199.66 66.26 192.11 61.08 192.39 61.08 199.66 66.07 199.66 66.26"/><polygon class="cls-30" points="199.66 66.45 191.83 61.08 192.11 61.08 199.66 66.26 199.66 66.45"/><polygon class="cls-31" points="199.66 66.65 191.55 61.08 191.83 61.08 199.66 66.45 199.66 66.65"/><polygon class="cls-32" points="199.66 66.84 191.27 61.08 191.55 61.08 199.66 66.65 199.66 66.84"/><polygon class="cls-33" points="199.66 67.03 190.99 61.08 191.27 61.08 199.66 66.84 199.66 67.03"/><polygon class="cls-34" points="199.66 67.22 190.71 61.08 190.99 61.08 199.66 67.03 199.66 67.22"/><polygon class="cls-35" points="199.66 67.42 190.43 61.08 190.71 61.08 199.66 67.22 199.66 67.42"/><polygon class="cls-36" points="199.66 67.61 190.15 61.08 190.43 61.08 199.66 67.42 199.66 67.61"/><polygon class="cls-37" points="199.66 67.8 189.87 61.08 190.15 61.08 199.66 67.61 199.66 67.8"/><polygon class="cls-38" points="199.66 67.99 189.59 61.08 189.87 61.08 199.66 67.8 199.66 67.99"/><polygon class="cls-39" points="199.66 68.19 189.31 61.08 189.59 61.08 199.66 67.99 199.66 68.19"/><polygon class="cls-40" points="199.66 68.38 189.03 61.08 189.31 61.08 199.66 68.19 199.66 68.38"/><polygon class="cls-41" points="199.66 68.57 188.75 61.08 189.03 61.08 199.66 68.38 199.66 68.57"/><polygon class="cls-42" points="199.66 68.76 188.47 61.08 188.75 61.08 199.66 68.57 199.66 68.76"/><polygon class="cls-43" points="199.66 68.95 188.19 61.08 188.47 61.08 199.66 68.76 199.66 68.95"/><polygon class="cls-44" points="199.66 69.15 187.91 61.08 188.19 61.08 199.66 68.95 199.66 69.15"/><polygon class="cls-45" points="199.66 69.34 187.63 61.08 187.91 61.08 199.66 69.15 199.66 69.34"/><polygon class="cls-46" points="199.66 69.53 187.35 61.08 187.63 61.08 199.66 69.34 199.66 69.53"/><polygon class="cls-47" points="199.66 69.72 187.07 61.08 187.35 61.08 199.66 69.53 199.66 69.72"/><polygon class="cls-48" points="199.66 69.92 186.79 61.08 187.07 61.08 199.66 69.72 199.66 69.92"/><polygon class="cls-49" points="199.66 70.11 186.51 61.08 186.79 61.08 199.66 69.92 199.66 70.11"/><polygon class="cls-50" points="199.66 70.3 186.23 61.08 186.51 61.08 199.66 70.11 199.66 70.3"/><polygon class="cls-51" points="199.66 70.5 185.95 61.08 186.23 61.08 199.66 70.3 199.66 70.5"/><polygon class="cls-52" points="199.66 70.69 185.67 61.08 185.95 61.08 199.66 70.5 199.66 70.69"/><polygon class="cls-53" points="199.66 70.88 185.39 61.08 185.67 61.08 199.66 70.69 199.66 70.88"/><polygon class="cls-54" points="199.66 71.07 185.11 61.08 185.39 61.08 199.66 70.88 199.66 71.07"/><polygon class="cls-55" points="199.66 71.26 184.83 61.08 185.11 61.08 199.66 71.07 199.66 71.26"/><polygon class="cls-56" points="199.66 71.46 184.55 61.08 184.83 61.08 199.66 71.26 199.66 71.46"/><polygon class="cls-57" points="199.66 71.65 184.27 61.08 184.55 61.08 199.66 71.46 199.66 71.65"/><polygon class="cls-58" points="199.66 71.84 183.99 61.08 184.27 61.08 199.66 71.65 199.66 71.84"/><polygon class="cls-59" points="199.66 72.03 183.71 61.08 183.99 61.08 199.66 71.84 199.66 72.03"/><polygon class="cls-60" points="199.66 72.23 183.43 61.08 183.71 61.08 199.66 72.03 199.66 72.23"/><polygon class="cls-61" points="199.66 72.42 183.15 61.08 183.43 61.08 199.66 72.23 199.66 72.42"/><polygon class="cls-62" points="199.66 72.61 182.87 61.08 183.15 61.08 199.66 72.42 199.66 72.61"/><polygon class="cls-63" points="199.66 72.8 182.59 61.08 182.87 61.08 199.66 72.61 199.66 72.8"/><polygon class="cls-64" points="199.66 73 182.31 61.08 182.59 61.08 199.66 72.8 199.66 73"/><polygon class="cls-65" points="199.66 73.19 182.03 61.08 182.31 61.08 199.66 73 199.66 73.19"/><polygon class="cls-66" points="199.66 73.38 181.75 61.08 182.03 61.08 199.66 73.19 199.66 73.38"/><polygon class="cls-67" points="199.66 73.57 181.47 61.08 181.75 61.08 199.66 73.38 199.66 73.57"/><polygon class="cls-68" points="199.66 73.77 181.19 61.08 181.47 61.08 199.66 73.57 199.66 73.77"/><polygon class="cls-69" points="199.66 73.96 180.91 61.08 181.19 61.08 199.66 73.77 199.66 73.96"/><polygon class="cls-70" points="199.66 74.15 180.63 61.08 180.91 61.08 199.66 73.96 199.66 74.15"/><polygon class="cls-71" points="199.66 74.34 180.34 61.08 180.63 61.08 199.66 74.15 199.66 74.34"/><polygon class="cls-72" points="199.66 74.53 180.06 61.08 180.34 61.08 199.66 74.34 199.66 74.53"/><polygon class="cls-73" points="199.66 74.66 199.63 74.7 179.78 61.08 180.06 61.08 199.66 74.53 199.66 74.66"/><polygon class="cls-73" points="199.63 74.7 199.56 74.79 179.59 61.08 179.78 61.08 199.63 74.7"/><polygon class="cls-74" points="199.56 74.79 199.5 74.88 179.4 61.08 179.59 61.08 199.56 74.79"/><polygon class="cls-75" points="199.5 74.88 199.44 74.97 179.21 61.08 179.4 61.08 199.5 74.88"/><polygon class="cls-76" points="199.44 74.97 199.38 75.06 179.01 61.08 179.21 61.08 199.44 74.97"/><polygon class="cls-77" points="199.38 75.06 199.32 75.15 178.82 61.08 179.01 61.08 199.38 75.06"/><polygon class="cls-78" points="199.32 75.15 199.25 75.24 178.63 61.08 178.82 61.08 199.32 75.15"/><polygon class="cls-79" points="199.25 75.24 199.19 75.33 178.44 61.08 178.63 61.08 199.25 75.24"/><polygon class="cls-80" points="199.19 75.33 199.13 75.42 178.24 61.08 178.44 61.08 199.19 75.33"/><polygon class="cls-81" points="199.13 75.42 199.07 75.51 178.05 61.08 178.24 61.08 199.13 75.42"/><polygon class="cls-82" points="199.07 75.51 199.01 75.6 177.86 61.08 178.05 61.08 199.07 75.51"/><polygon class="cls-83" points="199.01 75.6 198.95 75.69 177.66 61.08 177.86 61.08 199.01 75.6"/><polygon class="cls-84" points="198.95 75.69 198.88 75.78 177.47 61.08 177.66 61.08 198.95 75.69"/><polygon class="cls-85" points="198.88 75.78 198.82 75.87 177.28 61.08 177.47 61.08 198.88 75.78"/><polygon class="cls-86" points="198.82 75.87 198.76 75.96 177.09 61.08 177.28 61.08 198.82 75.87"/><polygon class="cls-87" points="198.76 75.96 198.7 76.05 176.89 61.08 177.09 61.08 198.76 75.96"/><polygon class="cls-88" points="198.7 76.05 198.64 76.14 176.7 61.08 176.89 61.08 198.7 76.05"/><polygon class="cls-89" points="198.64 76.14 198.57 76.23 176.51 61.08 176.7 61.08 198.64 76.14"/><polygon class="cls-90" points="198.57 76.23 198.51 76.32 176.31 61.08 176.51 61.08 198.57 76.23"/><polygon class="cls-91" points="198.51 76.32 198.45 76.41 176.12 61.08 176.31 61.08 198.51 76.32"/><polygon class="cls-92" points="198.45 76.41 198.39 76.5 175.93 61.08 176.12 61.08 198.45 76.41"/><polygon class="cls-93" points="198.39 76.5 198.33 76.59 175.74 61.08 175.93 61.08 198.39 76.5"/><polygon class="cls-94" points="198.33 76.59 198.27 76.68 175.54 61.08 175.74 61.08 198.33 76.59"/><polygon class="cls-95" points="198.27 76.68 198.21 76.77 175.35 61.08 175.54 61.08 198.27 76.68"/><polygon class="cls-96" points="198.21 76.77 198.14 76.86 175.16 61.08 175.35 61.08 198.21 76.77"/><polygon class="cls-97" points="198.14 76.86 198.08 76.95 174.97 61.08 175.16 61.08 198.14 76.86"/><polygon class="cls-98" points="198.08 76.95 198.02 77.04 174.77 61.08 174.97 61.08 198.08 76.95"/><polygon class="cls-99" points="198.02 77.04 197.96 77.13 174.58 61.08 174.77 61.08 198.02 77.04"/><polygon class="cls-100" points="197.96 77.13 197.9 77.22 174.39 61.08 174.58 61.08 197.96 77.13"/><polygon class="cls-101" points="197.9 77.22 197.83 77.31 174.19 61.08 174.39 61.08 197.9 77.22"/><polygon class="cls-102" points="197.83 77.31 197.77 77.4 174 61.08 174.19 61.08 197.83 77.31"/><polygon class="cls-103" points="197.77 77.4 197.73 77.46 197.67 77.46 173.81 61.08 174 61.08 197.77 77.4"/><polygon class="cls-104" points="197.47 77.46 173.62 61.08 173.81 61.08 197.67 77.46 197.47 77.46"/><polygon class="cls-105" points="197.28 77.46 173.5 61.14 173.5 61.08 173.62 61.08 197.47 77.46 197.28 77.46"/><polygon class="cls-106" points="197.09 77.46 173.5 61.27 173.5 61.14 197.28 77.46 197.09 77.46"/><polygon class="cls-107" points="196.9 77.46 173.5 61.4 173.5 61.27 197.09 77.46 196.9 77.46"/><polygon class="cls-108" points="196.7 77.46 173.5 61.53 173.5 61.4 196.9 77.46 196.7 77.46"/><polygon class="cls-109" points="196.51 77.46 173.5 61.66 173.5 61.53 196.7 77.46 196.51 77.46"/><polygon class="cls-110" points="196.32 77.46 173.5 61.8 173.5 61.66 196.51 77.46 196.32 77.46"/><polygon class="cls-111" points="196.13 77.46 173.5 61.93 173.5 61.8 196.32 77.46 196.13 77.46"/><polygon class="cls-112" points="195.93 77.46 173.5 62.06 173.5 61.93 196.13 77.46 195.93 77.46"/><polygon class="cls-113" points="195.74 77.46 173.5 62.2 173.5 62.06 195.93 77.46 195.74 77.46"/><polygon class="cls-114" points="195.55 77.46 173.5 62.33 173.5 62.2 195.74 77.46 195.55 77.46"/><polygon class="cls-115" points="195.35 77.46 173.5 62.46 173.5 62.33 195.55 77.46 195.35 77.46"/><polygon class="cls-116" points="195.16 77.46 173.5 62.59 173.5 62.46 195.35 77.46 195.16 77.46"/><polygon class="cls-117" points="194.97 77.46 173.5 62.72 173.5 62.59 195.16 77.46 194.97 77.46"/><polygon class="cls-118" points="194.78 77.46 173.5 62.86 173.5 62.72 194.97 77.46 194.78 77.46"/><polygon class="cls-119" points="194.58 77.46 173.5 62.99 173.5 62.86 194.78 77.46 194.58 77.46"/><polygon class="cls-120" points="194.39 77.46 173.5 63.12 173.5 62.99 194.58 77.46 194.39 77.46"/><polygon class="cls-121" points="194.2 77.46 173.5 63.25 173.5 63.12 194.39 77.46 194.2 77.46"/><polygon class="cls-122" points="194.01 77.46 173.5 63.39 173.5 63.25 194.2 77.46 194.01 77.46"/><polygon class="cls-123" points="193.81 77.46 173.5 63.52 173.5 63.39 194.01 77.46 193.81 77.46"/><polygon class="cls-124" points="193.62 77.46 173.5 63.65 173.5 63.52 193.81 77.46 193.62 77.46"/><polygon class="cls-125" points="193.43 77.46 173.5 63.78 173.5 63.65 193.62 77.46 193.43 77.46"/><polygon class="cls-126" points="193.24 77.46 173.5 63.91 173.5 63.78 193.43 77.46 193.24 77.46"/><polygon class="cls-127" points="193.04 77.46 173.5 64.05 173.5 63.91 193.24 77.46 193.04 77.46"/><polygon class="cls-128" points="192.85 77.46 173.5 64.18 173.5 64.05 193.04 77.46 192.85 77.46"/><polygon class="cls-129" points="192.66 77.46 173.5 64.31 173.5 64.18 192.85 77.46 192.66 77.46"/><polygon class="cls-130" points="192.46 77.46 173.5 64.44 173.5 64.31 192.66 77.46 192.46 77.46"/><polygon class="cls-131" points="192.27 77.46 173.5 64.58 173.5 64.44 192.46 77.46 192.27 77.46"/><polygon class="cls-132" points="192.08 77.46 173.5 64.71 173.5 64.58 192.27 77.46 192.08 77.46"/><polygon class="cls-133" points="191.88 77.46 173.5 64.84 173.5 64.71 192.08 77.46 191.88 77.46"/><polygon class="cls-134" points="191.69 77.46 173.5 64.97 173.5 64.84 191.88 77.46 191.69 77.46"/><polygon class="cls-135" points="191.5 77.46 173.5 65.11 173.5 64.97 191.69 77.46 191.5 77.46"/><polygon class="cls-136" points="191.31 77.46 173.5 65.24 173.5 65.11 191.5 77.46 191.31 77.46"/><polygon class="cls-137" points="191.12 77.46 173.5 65.37 173.5 65.24 191.31 77.46 191.12 77.46"/><polygon class="cls-138" points="190.92 77.46 173.5 65.5 173.5 65.37 191.12 77.46 190.92 77.46"/><polygon class="cls-139" points="190.73 77.46 173.5 65.64 173.5 65.5 190.92 77.46 190.73 77.46"/><polygon class="cls-140" points="190.54 77.46 173.5 65.77 173.5 65.64 190.73 77.46 190.54 77.46"/><polygon class="cls-141" points="190.34 77.46 173.5 65.9 173.5 65.77 190.54 77.46 190.34 77.46"/><polygon class="cls-142" points="190.15 77.46 173.5 66.03 173.5 65.9 190.34 77.46 190.15 77.46"/><polygon class="cls-143" points="189.96 77.46 173.5 66.17 173.5 66.03 190.15 77.46 189.96 77.46"/><polygon class="cls-144" points="189.76 77.46 173.5 66.3 173.5 66.17 189.96 77.46 189.76 77.46"/><polygon class="cls-145" points="189.57 77.46 173.5 66.43 173.5 66.3 189.76 77.46 189.57 77.46"/><polygon class="cls-146" points="189.38 77.46 173.5 66.56 173.5 66.43 189.57 77.46 189.38 77.46"/><polygon class="cls-147" points="189.19 77.46 173.5 66.69 173.5 66.56 189.38 77.46 189.19 77.46"/><polygon class="cls-148" points="188.99 77.46 173.5 66.83 173.5 66.69 189.19 77.46 188.99 77.46"/><polygon class="cls-149" points="188.8 77.46 173.5 66.96 173.5 66.83 188.99 77.46 188.8 77.46"/><polygon class="cls-150" points="188.61 77.46 173.5 67.09 173.5 66.96 188.8 77.46 188.61 77.46"/><polygon class="cls-151" points="188.42 77.46 173.5 67.22 173.5 67.09 188.61 77.46 188.42 77.46"/><polygon class="cls-152" points="188.22 77.46 173.5 67.36 173.5 67.22 188.42 77.46 188.22 77.46"/><polygon class="cls-153" points="188.03 77.46 173.5 67.49 173.5 67.36 188.22 77.46 188.03 77.46"/><polygon class="cls-154" points="187.84 77.46 173.5 67.62 173.5 67.49 188.03 77.46 187.84 77.46"/><polygon class="cls-155" points="187.65 77.46 173.5 67.75 173.5 67.62 187.84 77.46 187.65 77.46"/><polygon class="cls-156" points="187.45 77.46 173.5 67.89 173.5 67.75 187.65 77.46 187.45 77.46"/><polygon class="cls-157" points="187.26 77.46 173.5 68.02 173.5 67.89 187.45 77.46 187.26 77.46"/><polygon class="cls-158" points="187.07 77.46 173.5 68.15 173.5 68.02 187.26 77.46 187.07 77.46"/><polygon class="cls-159" points="186.87 77.46 173.5 68.28 173.5 68.15 187.07 77.46 186.87 77.46"/><polygon class="cls-160" points="186.68 77.46 173.5 68.42 173.5 68.28 186.87 77.46 186.68 77.46"/><polygon class="cls-161" points="186.49 77.46 173.5 68.55 173.5 68.42 186.68 77.46 186.49 77.46"/><polygon class="cls-162" points="186.3 77.46 173.5 68.68 173.5 68.55 186.49 77.46 186.3 77.46"/><polygon class="cls-163" points="186.1 77.46 173.5 68.81 173.5 68.68 186.3 77.46 186.1 77.46"/><polygon class="cls-164" points="185.91 77.46 173.5 68.94 173.5 68.81 186.1 77.46 185.91 77.46"/><polygon class="cls-165" points="185.72 77.46 173.5 69.08 173.5 68.94 185.91 77.46 185.72 77.46"/><polygon class="cls-166" points="185.53 77.46 173.5 69.21 173.5 69.08 185.72 77.46 185.53 77.46"/><polygon class="cls-167" points="185.33 77.46 173.5 69.34 173.5 69.21 185.53 77.46 185.33 77.46"/><polygon class="cls-168" points="185.14 77.46 173.5 69.47 173.5 69.34 185.33 77.46 185.14 77.46"/><polygon class="cls-169" points="184.95 77.46 173.5 69.61 173.5 69.47 185.14 77.46 184.95 77.46"/><polygon class="cls-170" points="184.75 77.46 173.5 69.74 173.5 69.61 184.95 77.46 184.75 77.46"/><polygon class="cls-171" points="184.56 77.46 173.5 69.87 173.5 69.74 184.75 77.46 184.56 77.46"/><polygon class="cls-172" points="184.37 77.46 173.5 70 173.5 69.87 184.56 77.46 184.37 77.46"/><polygon class="cls-173" points="184.18 77.46 173.5 70.14 173.5 70 184.37 77.46 184.18 77.46"/><polygon class="cls-174" points="183.98 77.46 173.5 70.27 173.5 70.14 184.18 77.46 183.98 77.46"/><polygon class="cls-175" points="183.79 77.46 173.5 70.4 173.5 70.27 183.98 77.46 183.79 77.46"/><polygon class="cls-176" points="183.6 77.46 173.5 70.53 173.5 70.4 183.79 77.46 183.6 77.46"/><polygon class="cls-177" points="183.41 77.46 173.5 70.67 173.5 70.53 183.6 77.46 183.41 77.46"/><polygon class="cls-178" points="183.21 77.46 173.5 70.8 173.5 70.67 183.41 77.46 183.21 77.46"/><polygon class="cls-179" points="183.02 77.46 173.5 70.93 173.5 70.8 183.21 77.46 183.02 77.46"/><polygon class="cls-180" points="182.83 77.46 173.5 71.06 173.5 70.93 183.02 77.46 182.83 77.46"/><polygon class="cls-181" points="182.63 77.46 173.5 71.19 173.5 71.06 182.83 77.46 182.63 77.46"/><polygon class="cls-182" points="182.44 77.46 173.5 71.33 173.5 71.19 182.63 77.46 182.44 77.46"/><polygon class="cls-183" points="182.25 77.46 173.5 71.46 173.5 71.33 182.44 77.46 182.25 77.46"/><polygon class="cls-184" points="182.06 77.46 173.5 71.59 173.5 71.46 182.25 77.46 182.06 77.46"/><polygon class="cls-185" points="181.86 77.46 173.5 71.72 173.5 71.59 182.06 77.46 181.86 77.46"/><polygon class="cls-186" points="181.67 77.46 173.5 71.86 173.5 71.72 181.86 77.46 181.67 77.46"/><polygon class="cls-187" points="181.48 77.46 173.5 71.99 173.5 71.86 181.67 77.46 181.48 77.46"/><polygon class="cls-188" points="181.28 77.46 173.5 72.12 173.5 71.99 181.48 77.46 181.28 77.46"/><polygon class="cls-189" points="181.09 77.46 173.5 72.25 173.5 72.12 181.28 77.46 181.09 77.46"/><polygon class="cls-190" points="180.9 77.46 173.5 72.39 173.5 72.25 181.09 77.46 180.9 77.46"/><polygon class="cls-191" points="180.71 77.46 173.5 72.52 173.5 72.39 180.9 77.46 180.71 77.46"/><polygon class="cls-192" points="180.51 77.46 173.5 72.65 173.5 72.52 180.71 77.46 180.51 77.46"/><polygon class="cls-193" points="180.32 77.46 173.5 72.78 173.5 72.65 180.51 77.46 180.32 77.46"/><polygon class="cls-194" points="180.13 77.46 173.5 72.91 173.5 72.78 180.32 77.46 180.13 77.46"/><polygon class="cls-195" points="179.94 77.46 173.5 73.05 173.5 72.91 180.13 77.46 179.94 77.46"/><polygon class="cls-196" points="179.74 77.46 173.5 73.18 173.5 73.05 179.94 77.46 179.74 77.46"/><polygon class="cls-197" points="179.55 77.46 173.5 73.31 173.5 73.18 179.74 77.46 179.55 77.46"/><polygon class="cls-198" points="179.36 77.46 173.5 73.44 173.5 73.31 179.55 77.46 179.36 77.46"/><polygon class="cls-199" points="179.16 77.46 173.5 73.58 173.5 73.44 179.36 77.46 179.16 77.46"/><polygon class="cls-200" points="178.97 77.46 173.5 73.71 173.5 73.58 179.16 77.46 178.97 77.46"/><polygon class="cls-201" points="178.78 77.46 173.5 73.84 173.5 73.71 178.97 77.46 178.78 77.46"/><polygon class="cls-202" points="178.59 77.46 173.5 73.97 173.5 73.84 178.78 77.46 178.59 77.46"/><polygon class="cls-203" points="178.39 77.46 173.5 74.11 173.5 73.97 178.59 77.46 178.39 77.46"/><polygon class="cls-204" points="178.2 77.46 173.5 74.24 173.5 74.11 178.39 77.46 178.2 77.46"/><polygon class="cls-205" points="178.01 77.46 173.5 74.37 173.5 74.24 178.2 77.46 178.01 77.46"/><polygon class="cls-206" points="177.82 77.46 173.5 74.5 173.5 74.37 178.01 77.46 177.82 77.46"/><polygon class="cls-207" points="177.62 77.46 173.5 74.64 173.5 74.5 177.82 77.46 177.62 77.46"/><polygon class="cls-207" points="176.94 77.46 173.5 75.11 173.5 74.64 177.62 77.46 176.94 77.46"/><polygon class="cls-208" points="176.25 77.46 173.5 75.58 173.5 75.11 176.94 77.46 176.25 77.46"/><polygon class="cls-209" points="175.57 77.46 173.5 76.05 173.5 75.58 176.25 77.46 175.57 77.46"/><polygon class="cls-210" points="174.88 77.46 173.5 76.52 173.5 76.05 175.57 77.46 174.88 77.46"/><polygon class="cls-211" points="174.19 77.46 173.5 76.99 173.5 76.52 174.88 77.46 174.19 77.46"/><polygon class="cls-212" points="173.51 77.46 173.5 77.46 173.5 76.99 174.19 77.46 173.51 77.46"/><polygon class="cls-213" points="173.5 77.46 173.51 77.46 173.5 77.46 173.5 77.46"/></g><path class="cls-214" d="M194.49,79l-1-.5a76,76,0,0,0-20.22-6.84L172,71.46l.39-1.3c1.08-3.58,5.12-10.2,12.54-9.61,5.38.42,9.69,2.86,11.53,6.52,1.14,2.26,1.82,6-1.33,11ZM175.16,69.6a78.72,78.72,0,0,1,18.41,6.28c1.54-2.86,1.77-5.51.67-7.71-1.43-2.85-5.09-4.84-9.55-5.19C179.08,62.53,176.23,67.25,175.16,69.6Z"/><g class="cls-215"><polygon class="cls-216" points="102.83 70.08 102.74 70.2 102.74 70.08 102.83 70.08"/><polygon class="cls-217" points="103.09 70.08 102.74 70.56 102.74 70.2 102.83 70.08 103.09 70.08"/><polygon class="cls-218" points="103.36 70.08 102.74 70.92 102.74 70.56 103.09 70.08 103.36 70.08"/><polygon class="cls-219" points="103.63 70.08 102.74 71.28 102.74 70.92 103.36 70.08 103.63 70.08"/><polygon class="cls-220" points="103.89 70.08 102.74 71.64 102.74 71.28 103.63 70.08 103.89 70.08"/><polygon class="cls-221" points="104.16 70.08 102.74 72.01 102.74 71.64 103.89 70.08 104.16 70.08"/><polygon class="cls-222" points="104.42 70.08 102.74 72.37 102.74 72.01 104.16 70.08 104.42 70.08"/><polygon class="cls-223" points="104.69 70.08 102.74 72.73 102.74 72.37 104.42 70.08 104.69 70.08"/><polygon class="cls-224" points="104.96 70.08 102.74 73.09 102.74 72.73 104.69 70.08 104.96 70.08"/><polygon class="cls-4" points="105.22 70.08 102.74 73.45 102.74 73.09 104.96 70.08 105.22 70.08"/><polygon class="cls-5" points="105.49 70.08 102.74 73.82 102.74 73.45 105.22 70.08 105.49 70.08"/><polygon class="cls-6" points="105.76 70.08 102.74 74.18 102.74 73.82 105.49 70.08 105.76 70.08"/><polygon class="cls-7" points="106.03 70.08 102.74 74.54 102.74 74.18 105.76 70.08 106.03 70.08"/><polygon class="cls-8" points="106.29 70.08 102.74 74.9 102.74 74.54 106.03 70.08 106.29 70.08"/><polygon class="cls-9" points="106.56 70.08 102.74 75.26 102.74 74.9 106.29 70.08 106.56 70.08"/><polygon class="cls-9" points="106.81 70.08 102.74 75.61 102.74 75.26 106.56 70.08 106.81 70.08"/><polygon class="cls-10" points="107.07 70.08 102.74 75.95 102.74 75.61 106.81 70.08 107.07 70.08"/><polygon class="cls-11" points="107.32 70.08 102.74 76.3 102.74 75.95 107.07 70.08 107.32 70.08"/><polygon class="cls-12" points="107.58 70.08 102.74 76.64 102.74 76.3 107.32 70.08 107.58 70.08"/><polygon class="cls-13" points="107.83 70.08 102.74 76.99 102.74 76.64 107.58 70.08 107.83 70.08"/><polygon class="cls-14" points="108.09 70.08 102.74 77.34 102.74 76.99 107.83 70.08 108.09 70.08"/><polygon class="cls-15" points="108.34 70.08 102.74 77.68 102.74 77.34 108.09 70.08 108.34 70.08"/><polygon class="cls-16" points="108.6 70.08 102.74 78.03 102.74 77.68 108.34 70.08 108.6 70.08"/><polygon class="cls-17" points="108.85 70.08 102.74 78.37 102.74 78.03 108.6 70.08 108.85 70.08"/><polygon class="cls-18" points="109.11 70.08 102.74 78.72 102.74 78.37 108.85 70.08 109.11 70.08"/><polygon class="cls-19" points="109.36 70.08 102.74 79.06 102.74 78.72 109.11 70.08 109.36 70.08"/><polygon class="cls-20" points="109.62 70.08 102.74 79.41 102.74 79.06 109.36 70.08 109.62 70.08"/><polygon class="cls-21" points="109.87 70.08 102.74 79.76 102.74 79.41 109.62 70.08 109.87 70.08"/><polygon class="cls-22" points="110.13 70.08 102.74 80.1 102.74 79.76 109.87 70.08 110.13 70.08"/><polygon class="cls-23" points="110.38 70.08 102.74 80.45 102.74 80.1 110.13 70.08 110.38 70.08"/><polygon class="cls-24" points="110.64 70.08 102.74 80.79 102.74 80.45 110.38 70.08 110.64 70.08"/><polygon class="cls-25" points="110.89 70.08 102.74 81.14 102.74 80.79 110.64 70.08 110.89 70.08"/><polygon class="cls-26" points="111.15 70.08 102.74 81.48 102.74 81.14 110.89 70.08 111.15 70.08"/><polygon class="cls-27" points="111.4 70.08 102.74 81.83 102.74 81.48 111.15 70.08 111.4 70.08"/><polygon class="cls-28" points="111.66 70.08 102.74 82.18 102.74 81.83 111.4 70.08 111.66 70.08"/><polygon class="cls-29" points="111.91 70.08 102.74 82.52 102.74 82.18 111.66 70.08 111.91 70.08"/><polygon class="cls-30" points="112.17 70.08 102.74 82.87 102.74 82.52 111.91 70.08 112.17 70.08"/><polygon class="cls-31" points="112.42 70.08 102.74 83.21 102.74 82.87 112.17 70.08 112.42 70.08"/><polygon class="cls-32" points="112.67 70.08 102.74 83.56 102.74 83.21 112.42 70.08 112.67 70.08"/><polygon class="cls-33" points="112.93 70.08 102.74 83.9 102.74 83.56 112.67 70.08 112.93 70.08"/><polygon class="cls-34" points="113.18 70.08 102.74 84.25 102.74 83.9 112.93 70.08 113.18 70.08"/><polygon class="cls-35" points="113.44 70.08 102.74 84.6 102.74 84.25 113.18 70.08 113.44 70.08"/><polygon class="cls-36" points="113.69 70.08 102.74 84.94 102.74 84.6 113.44 70.08 113.69 70.08"/><polygon class="cls-37" points="113.95 70.08 102.74 85.29 102.74 84.94 113.69 70.08 113.95 70.08"/><polygon class="cls-38" points="114.2 70.08 102.74 85.63 102.74 85.29 113.95 70.08 114.2 70.08"/><polygon class="cls-39" points="114.46 70.08 102.74 85.98 102.74 85.63 114.2 70.08 114.46 70.08"/><polygon class="cls-40" points="114.71 70.08 102.74 86.32 102.74 85.98 114.46 70.08 114.71 70.08"/><polygon class="cls-41" points="114.97 70.08 102.74 86.67 102.74 86.32 114.71 70.08 114.97 70.08"/><polygon class="cls-42" points="115.22 70.08 102.74 87.02 102.74 86.67 114.97 70.08 115.22 70.08"/><polygon class="cls-43" points="115.48 70.08 102.74 87.36 102.74 87.02 115.22 70.08 115.48 70.08"/><polygon class="cls-44" points="115.73 70.08 102.74 87.71 102.74 87.36 115.48 70.08 115.73 70.08"/><polygon class="cls-45" points="115.99 70.08 102.74 88.05 102.74 87.71 115.73 70.08 115.99 70.08"/><polygon class="cls-46" points="116.24 70.08 102.74 88.4 102.74 88.05 115.99 70.08 116.24 70.08"/><polygon class="cls-47" points="116.5 70.08 102.74 88.74 102.74 88.4 116.24 70.08 116.5 70.08"/><polygon class="cls-48" points="116.75 70.08 102.74 89.09 102.74 88.74 116.5 70.08 116.75 70.08"/><polygon class="cls-49" points="117.01 70.08 102.74 89.44 102.74 89.09 116.75 70.08 117.01 70.08"/><polygon class="cls-50" points="117.26 70.08 102.74 89.78 102.74 89.44 117.01 70.08 117.26 70.08"/><polygon class="cls-51" points="117.52 70.08 102.74 90.13 102.74 89.78 117.26 70.08 117.52 70.08"/><polygon class="cls-52" points="117.77 70.08 102.88 90.29 102.74 90.19 102.74 90.13 117.52 70.08 117.77 70.08"/><polygon class="cls-53" points="118.03 70.08 103.04 90.41 102.88 90.29 117.77 70.08 118.03 70.08"/><polygon class="cls-54" points="118.28 70.08 103.21 90.53 103.04 90.41 118.03 70.08 118.28 70.08"/><polygon class="cls-55" points="118.54 70.08 103.37 90.65 103.21 90.53 118.28 70.08 118.54 70.08"/><polygon class="cls-56" points="118.79 70.08 103.54 90.78 103.37 90.65 118.54 70.08 118.79 70.08"/><polygon class="cls-57" points="119.05 70.08 103.7 90.9 103.54 90.78 118.79 70.08 119.05 70.08"/><polygon class="cls-58" points="119.3 70.08 103.87 91.02 103.7 90.9 119.05 70.08 119.3 70.08"/><polygon class="cls-59" points="119.56 70.08 104.03 91.14 103.87 91.02 119.3 70.08 119.56 70.08"/><polygon class="cls-60" points="119.81 70.08 104.2 91.26 104.03 91.14 119.56 70.08 119.81 70.08"/><polygon class="cls-61" points="120.06 70.08 104.36 91.38 104.2 91.26 119.81 70.08 120.06 70.08"/><polygon class="cls-62" points="120.32 70.08 104.53 91.51 104.36 91.38 120.06 70.08 120.32 70.08"/><polygon class="cls-63" points="120.58 70.08 104.69 91.63 104.53 91.51 120.32 70.08 120.58 70.08"/><polygon class="cls-64" points="120.83 70.08 104.86 91.75 104.69 91.63 120.58 70.08 120.83 70.08"/><polygon class="cls-65" points="121.08 70.08 105.02 91.87 104.86 91.75 120.83 70.08 121.08 70.08"/><polygon class="cls-66" points="121.34 70.08 105.19 91.99 105.02 91.87 121.08 70.08 121.34 70.08"/><polygon class="cls-67" points="121.59 70.08 105.35 92.11 105.19 91.99 121.34 70.08 121.59 70.08"/><polygon class="cls-68" points="121.85 70.08 105.52 92.24 105.35 92.11 121.59 70.08 121.85 70.08"/><polygon class="cls-69" points="122.1 70.08 105.68 92.36 105.52 92.24 121.85 70.08 122.1 70.08"/><polygon class="cls-70" points="122.36 70.08 105.85 92.48 105.68 92.36 122.1 70.08 122.36 70.08"/><polygon class="cls-71" points="122.61 70.08 106.01 92.6 105.85 92.48 122.36 70.08 122.61 70.08"/><polygon class="cls-72" points="122.87 70.08 106.22 92.66 106.1 92.66 106.01 92.6 122.61 70.08 122.87 70.08"/><polygon class="cls-73" points="123.12 70.08 106.48 92.66 106.22 92.66 122.87 70.08 123.12 70.08"/><polygon class="cls-73" points="123.3 70.08 106.65 92.66 106.48 92.66 123.12 70.08 123.3 70.08"/><polygon class="cls-74" points="123.47 70.08 106.83 92.66 106.65 92.66 123.3 70.08 123.47 70.08"/><polygon class="cls-75" points="123.65 70.08 107 92.66 106.83 92.66 123.47 70.08 123.65 70.08"/><polygon class="cls-76" points="123.82 70.08 107.18 92.66 107 92.66 123.65 70.08 123.82 70.08"/><polygon class="cls-77" points="124 70.08 107.36 92.66 107.18 92.66 123.82 70.08 124 70.08"/><polygon class="cls-78" points="124.17 70.08 107.53 92.66 107.36 92.66 124 70.08 124.17 70.08"/><polygon class="cls-79" points="124.35 70.08 107.71 92.66 107.53 92.66 124.17 70.08 124.35 70.08"/><polygon class="cls-80" points="124.53 70.08 107.88 92.66 107.71 92.66 124.35 70.08 124.53 70.08"/><polygon class="cls-81" points="124.7 70.08 108.06 92.66 107.88 92.66 124.53 70.08 124.7 70.08"/><polygon class="cls-82" points="124.88 70.08 108.23 92.66 108.06 92.66 124.7 70.08 124.88 70.08"/><polygon class="cls-83" points="125.05 70.08 108.41 92.66 108.23 92.66 124.88 70.08 125.05 70.08"/><polygon class="cls-84" points="125.23 70.08 108.58 92.66 108.41 92.66 125.05 70.08 125.23 70.08"/><polygon class="cls-85" points="125.4 70.08 108.76 92.66 108.58 92.66 125.23 70.08 125.4 70.08"/><polygon class="cls-86" points="125.58 70.08 108.93 92.66 108.76 92.66 125.4 70.08 125.58 70.08"/><polygon class="cls-87" points="125.75 70.08 109.11 92.66 108.93 92.66 125.58 70.08 125.75 70.08"/><polygon class="cls-88" points="125.93 70.08 109.28 92.66 109.11 92.66 125.75 70.08 125.93 70.08"/><polygon class="cls-89" points="126.1 70.08 109.46 92.66 109.28 92.66 125.93 70.08 126.1 70.08"/><polygon class="cls-90" points="126.28 70.08 109.63 92.66 109.46 92.66 126.1 70.08 126.28 70.08"/><polygon class="cls-91" points="126.45 70.08 109.81 92.66 109.63 92.66 126.28 70.08 126.45 70.08"/><polygon class="cls-92" points="126.63 70.08 109.98 92.66 109.81 92.66 126.45 70.08 126.63 70.08"/><polygon class="cls-93" points="126.8 70.08 110.16 92.66 109.98 92.66 126.63 70.08 126.8 70.08"/><polygon class="cls-94" points="126.98 70.08 110.33 92.66 110.16 92.66 126.8 70.08 126.98 70.08"/><polygon class="cls-95" points="127.15 70.08 110.51 92.66 110.33 92.66 126.98 70.08 127.15 70.08"/><polygon class="cls-96" points="127.33 70.08 110.69 92.66 110.51 92.66 127.15 70.08 127.33 70.08"/><polygon class="cls-97" points="127.5 70.08 110.86 92.66 110.69 92.66 127.33 70.08 127.5 70.08"/><polygon class="cls-98" points="127.68 70.08 111.04 92.66 110.86 92.66 127.5 70.08 127.68 70.08"/><polygon class="cls-99" points="127.86 70.08 111.21 92.66 111.04 92.66 127.68 70.08 127.86 70.08"/><polygon class="cls-100" points="128.03 70.08 111.39 92.66 111.21 92.66 127.86 70.08 128.03 70.08"/><polygon class="cls-101" points="128.21 70.08 111.56 92.66 111.39 92.66 128.03 70.08 128.21 70.08"/><polygon class="cls-102" points="128.38 70.08 111.74 92.66 111.56 92.66 128.21 70.08 128.38 70.08"/><polygon class="cls-103" points="128.56 70.08 111.91 92.66 111.74 92.66 128.38 70.08 128.56 70.08"/><polygon class="cls-104" points="128.73 70.08 112.09 92.66 111.91 92.66 128.56 70.08 128.73 70.08"/><polygon class="cls-105" points="128.91 70.08 112.26 92.66 112.09 92.66 128.73 70.08 128.91 70.08"/><polygon class="cls-106" points="129.08 70.08 112.44 92.66 112.26 92.66 128.91 70.08 129.08 70.08"/><polygon class="cls-107" points="129.26 70.08 112.61 92.66 112.44 92.66 129.08 70.08 129.26 70.08"/><polygon class="cls-108" points="129.43 70.08 112.79 92.66 112.61 92.66 129.26 70.08 129.43 70.08"/><polygon class="cls-109" points="129.61 70.08 112.96 92.66 112.79 92.66 129.43 70.08 129.61 70.08"/><polygon class="cls-110" points="129.78 70.08 113.14 92.66 112.96 92.66 129.61 70.08 129.78 70.08"/><polygon class="cls-111" points="129.96 70.08 113.31 92.66 113.14 92.66 129.78 70.08 129.96 70.08"/><polygon class="cls-112" points="130.13 70.08 113.49 92.66 113.31 92.66 129.96 70.08 130.13 70.08"/><polygon class="cls-113" points="130.31 70.08 113.67 92.66 113.49 92.66 130.13 70.08 130.31 70.08"/><polygon class="cls-114" points="130.49 70.08 113.84 92.66 113.67 92.66 130.31 70.08 130.49 70.08"/><polygon class="cls-115" points="130.66 70.08 114.02 92.66 113.84 92.66 130.49 70.08 130.66 70.08"/><polygon class="cls-116" points="130.84 70.08 114.19 92.66 114.02 92.66 130.66 70.08 130.84 70.08"/><polygon class="cls-117" points="131.01 70.08 114.37 92.66 114.19 92.66 130.84 70.08 131.01 70.08"/><polygon class="cls-118" points="131.19 70.08 114.54 92.66 114.37 92.66 131.01 70.08 131.19 70.08"/><polygon class="cls-119" points="131.36 70.08 114.72 92.66 114.54 92.66 131.19 70.08 131.36 70.08"/><polygon class="cls-120" points="131.54 70.08 114.89 92.66 114.72 92.66 131.36 70.08 131.54 70.08"/><polygon class="cls-121" points="131.71 70.08 115.07 92.66 114.89 92.66 131.54 70.08 131.71 70.08"/><polygon class="cls-122" points="131.89 70.08 115.24 92.66 115.07 92.66 131.71 70.08 131.89 70.08"/><polygon class="cls-123" points="132.06 70.08 115.42 92.66 115.24 92.66 131.89 70.08 132.06 70.08"/><polygon class="cls-124" points="132.24 70.08 115.59 92.66 115.42 92.66 132.06 70.08 132.24 70.08"/><polygon class="cls-125" points="132.41 70.08 115.77 92.66 115.59 92.66 132.24 70.08 132.41 70.08"/><polygon class="cls-126" points="132.59 70.08 115.94 92.66 115.77 92.66 132.41 70.08 132.59 70.08"/><polygon class="cls-127" points="132.76 70.08 116.12 92.66 115.94 92.66 132.59 70.08 132.76 70.08"/><polygon class="cls-128" points="132.94 70.08 116.3 92.66 116.12 92.66 132.76 70.08 132.94 70.08"/><polygon class="cls-129" points="133.11 70.08 116.47 92.66 116.3 92.66 132.94 70.08 133.11 70.08"/><polygon class="cls-130" points="133.29 70.08 116.64 92.66 116.47 92.66 133.11 70.08 133.29 70.08"/><polygon class="cls-131" points="133.47 70.08 116.82 92.66 116.64 92.66 133.29 70.08 133.47 70.08"/><polygon class="cls-132" points="133.64 70.08 117 92.66 116.82 92.66 133.47 70.08 133.64 70.08"/><polygon class="cls-133" points="133.81 70.08 117.17 92.66 117 92.66 133.64 70.08 133.81 70.08"/><polygon class="cls-134" points="133.99 70.08 117.35 92.66 117.17 92.66 133.81 70.08 133.99 70.08"/><polygon class="cls-135" points="134.17 70.08 117.52 92.66 117.35 92.66 133.99 70.08 134.17 70.08"/><polygon class="cls-136" points="134.34 70.08 117.7 92.66 117.52 92.66 134.17 70.08 134.34 70.08"/><polygon class="cls-137" points="134.52 70.08 117.87 92.66 117.7 92.66 134.34 70.08 134.52 70.08"/><polygon class="cls-138" points="134.69 70.08 118.05 92.66 117.87 92.66 134.52 70.08 134.69 70.08"/><polygon class="cls-139" points="134.82 70.15 118.22 92.66 118.05 92.66 134.69 70.08 134.82 70.08 134.82 70.15"/><polygon class="cls-140" points="134.82 70.39 118.4 92.66 118.22 92.66 134.82 70.15 134.82 70.39"/><polygon class="cls-141" points="134.82 70.63 118.57 92.66 118.4 92.66 134.82 70.39 134.82 70.63"/><polygon class="cls-142" points="134.82 70.86 118.75 92.66 118.57 92.66 134.82 70.63 134.82 70.86"/><polygon class="cls-143" points="134.82 71.1 118.92 92.66 118.75 92.66 134.82 70.86 134.82 71.1"/><polygon class="cls-144" points="134.82 71.34 119.1 92.66 118.92 92.66 134.82 71.1 134.82 71.34"/><polygon class="cls-145" points="134.82 71.58 119.27 92.66 119.1 92.66 134.82 71.34 134.82 71.58"/><polygon class="cls-146" points="134.82 71.82 119.45 92.66 119.27 92.66 134.82 71.58 134.82 71.82"/><polygon class="cls-147" points="134.82 72.05 119.63 92.66 119.45 92.66 134.82 71.82 134.82 72.05"/><polygon class="cls-148" points="134.82 72.29 119.8 92.66 119.63 92.66 134.82 72.05 134.82 72.29"/><polygon class="cls-149" points="134.82 72.53 119.98 92.66 119.8 92.66 134.82 72.29 134.82 72.53"/><polygon class="cls-150" points="134.82 72.77 120.15 92.66 119.98 92.66 134.82 72.53 134.82 72.77"/><polygon class="cls-151" points="134.82 73 120.33 92.66 120.15 92.66 134.82 72.77 134.82 73"/><polygon class="cls-152" points="134.82 73.24 120.5 92.66 120.33 92.66 134.82 73 134.82 73.24"/><polygon class="cls-153" points="134.82 73.48 120.68 92.66 120.5 92.66 134.82 73.24 134.82 73.48"/><polygon class="cls-154" points="134.82 73.72 120.85 92.66 120.68 92.66 134.82 73.48 134.82 73.72"/><polygon class="cls-155" points="134.82 73.96 121.03 92.66 120.85 92.66 134.82 73.72 134.82 73.96"/><polygon class="cls-156" points="134.82 74.19 121.2 92.66 121.03 92.66 134.82 73.96 134.82 74.19"/><polygon class="cls-157" points="134.82 74.43 121.38 92.66 121.2 92.66 134.82 74.19 134.82 74.43"/><polygon class="cls-158" points="134.82 74.67 121.55 92.66 121.38 92.66 134.82 74.43 134.82 74.67"/><polygon class="cls-159" points="134.82 74.91 121.73 92.66 121.55 92.66 134.82 74.67 134.82 74.91"/><polygon class="cls-160" points="134.82 75.14 121.9 92.66 121.73 92.66 134.82 74.91 134.82 75.14"/><polygon class="cls-161" points="134.82 75.38 122.08 92.66 121.9 92.66 134.82 75.14 134.82 75.38"/><polygon class="cls-162" points="134.82 75.62 122.25 92.66 122.08 92.66 134.82 75.38 134.82 75.62"/><polygon class="cls-163" points="134.82 75.86 122.43 92.66 122.25 92.66 134.82 75.62 134.82 75.86"/><polygon class="cls-164" points="134.82 76.1 122.61 92.66 122.43 92.66 134.82 75.86 134.82 76.1"/><polygon class="cls-165" points="134.82 76.33 122.78 92.66 122.61 92.66 134.82 76.1 134.82 76.33"/><polygon class="cls-166" points="134.82 76.57 122.95 92.66 122.78 92.66 134.82 76.33 134.82 76.57"/><polygon class="cls-167" points="134.82 76.81 123.13 92.66 122.95 92.66 134.82 76.57 134.82 76.81"/><polygon class="cls-168" points="134.82 77.05 123.31 92.66 123.13 92.66 134.82 76.81 134.82 77.05"/><polygon class="cls-169" points="134.82 77.28 123.48 92.66 123.31 92.66 134.82 77.05 134.82 77.28"/><polygon class="cls-170" points="134.82 77.52 123.66 92.66 123.48 92.66 134.82 77.28 134.82 77.52"/><polygon class="cls-171" points="134.82 77.76 123.83 92.66 123.66 92.66 134.82 77.52 134.82 77.76"/><polygon class="cls-172" points="134.82 78 124.01 92.66 123.83 92.66 134.82 77.76 134.82 78"/><polygon class="cls-173" points="134.82 78.23 124.18 92.66 124.01 92.66 134.82 78 134.82 78.23"/><polygon class="cls-174" points="134.82 78.47 124.36 92.66 124.18 92.66 134.82 78.23 134.82 78.47"/><polygon class="cls-175" points="134.82 78.71 124.53 92.66 124.36 92.66 134.82 78.47 134.82 78.71"/><polygon class="cls-176" points="134.82 78.95 124.71 92.66 124.53 92.66 134.82 78.71 134.82 78.95"/><polygon class="cls-177" points="134.82 79.19 124.88 92.66 124.71 92.66 134.82 78.95 134.82 79.19"/><polygon class="cls-178" points="134.82 79.42 125.06 92.66 124.88 92.66 134.82 79.19 134.82 79.42"/><polygon class="cls-179" points="134.82 79.66 125.23 92.66 125.06 92.66 134.82 79.42 134.82 79.66"/><polygon class="cls-180" points="134.82 79.9 125.41 92.66 125.23 92.66 134.82 79.66 134.82 79.9"/><polygon class="cls-181" points="134.82 80.14 125.58 92.66 125.41 92.66 134.82 79.9 134.82 80.14"/><polygon class="cls-182" points="134.82 80.38 125.76 92.66 125.58 92.66 134.82 80.14 134.82 80.38"/><polygon class="cls-183" points="134.82 80.61 125.94 92.66 125.76 92.66 134.82 80.38 134.82 80.61"/><polygon class="cls-184" points="134.82 80.85 126.11 92.66 125.94 92.66 134.82 80.61 134.82 80.85"/><polygon class="cls-185" points="134.82 81.09 126.29 92.66 126.11 92.66 134.82 80.85 134.82 81.09"/><polygon class="cls-186" points="134.82 81.33 126.46 92.66 126.29 92.66 134.82 81.09 134.82 81.33"/><polygon class="cls-187" points="134.82 81.56 126.64 92.66 126.46 92.66 134.82 81.33 134.82 81.56"/><polygon class="cls-188" points="134.82 81.8 126.81 92.66 126.64 92.66 134.82 81.56 134.82 81.8"/><polygon class="cls-189" points="134.82 82.04 126.99 92.66 126.81 92.66 134.82 81.8 134.82 82.04"/><polygon class="cls-190" points="134.82 82.28 127.16 92.66 126.99 92.66 134.82 82.04 134.82 82.28"/><polygon class="cls-191" points="134.82 82.52 127.34 92.66 127.16 92.66 134.82 82.28 134.82 82.52"/><polygon class="cls-192" points="134.82 82.75 127.51 92.66 127.34 92.66 134.82 82.52 134.82 82.75"/><polygon class="cls-193" points="134.82 82.99 127.69 92.66 127.51 92.66 134.82 82.75 134.82 82.99"/><polygon class="cls-194" points="134.82 83.23 127.86 92.66 127.69 92.66 134.82 82.99 134.82 83.23"/><polygon class="cls-195" points="134.82 83.47 128.04 92.66 127.86 92.66 134.82 83.23 134.82 83.47"/><polygon class="cls-196" points="134.82 83.7 128.21 92.66 128.04 92.66 134.82 83.47 134.82 83.7"/><polygon class="cls-197" points="134.82 83.94 128.39 92.66 128.21 92.66 134.82 83.7 134.82 83.94"/><polygon class="cls-198" points="134.82 84.18 128.56 92.66 128.39 92.66 134.82 83.94 134.82 84.18"/><polygon class="cls-199" points="134.82 84.42 128.74 92.66 128.56 92.66 134.82 84.18 134.82 84.42"/><polygon class="cls-200" points="134.82 84.66 128.91 92.66 128.74 92.66 134.82 84.42 134.82 84.66"/><polygon class="cls-201" points="134.82 84.89 129.09 92.66 128.91 92.66 134.82 84.66 134.82 84.89"/><polygon class="cls-202" points="134.82 85.13 129.27 92.66 129.09 92.66 134.82 84.89 134.82 85.13"/><polygon class="cls-203" points="134.82 85.37 129.44 92.66 129.27 92.66 134.82 85.13 134.82 85.37"/><polygon class="cls-204" points="134.82 85.61 129.62 92.66 129.44 92.66 134.82 85.37 134.82 85.61"/><polygon class="cls-205" points="134.82 85.84 129.79 92.66 129.62 92.66 134.82 85.61 134.82 85.84"/><polygon class="cls-206" points="134.82 86.08 129.97 92.66 129.79 92.66 134.82 85.84 134.82 86.08"/><polygon class="cls-207" points="134.82 86.32 130.14 92.66 129.97 92.66 134.82 86.08 134.82 86.32"/><polygon class="cls-207" points="134.82 87.17 130.77 92.66 130.14 92.66 134.82 86.32 134.82 87.17"/><polygon class="cls-208" points="134.82 88.01 131.39 92.66 130.77 92.66 134.82 87.17 134.82 88.01"/><polygon class="cls-209" points="134.82 88.86 132.01 92.66 131.39 92.66 134.82 88.01 134.82 88.86"/><polygon class="cls-210" points="134.82 89.7 132.64 92.66 132.01 92.66 134.82 88.86 134.82 89.7"/><polygon class="cls-211" points="134.82 90.55 133.26 92.66 132.64 92.66 134.82 89.7 134.82 90.55"/><polygon class="cls-212" points="134.82 91.39 133.88 92.66 133.26 92.66 134.82 90.55 134.82 91.39"/><polygon class="cls-213" points="134.82 92.24 134.51 92.66 133.88 92.66 134.82 91.39 134.82 92.24"/><polygon class="cls-225" points="134.51 92.66 134.82 92.24 134.82 92.66 134.51 92.66"/></g><path class="cls-214" d="M116.67,93.77c-.28-.12-7-3.08-8.31-9-.81-3.53.46-7.27,3.77-11.11a13.87,13.87,0,0,1,10.78-4.81c8,0,12.7,6.31,12.89,6.57l-2,1.44c0-.06-4.2-5.57-10.95-5.59h0a11.61,11.61,0,0,0-8.9,4c-2.78,3.22-3.87,6.25-3.24,9,1.08,4.72,6.86,7.27,6.91,7.29Z"/><g class="cls-226"><rect class="cls-227" x="106.49" y="67.84" width="109.56" height="109.56"/><polygon class="cls-227" points="214.11 178.91 116.46 178.91 104.98 178.91 104.98 66.32 217.57 66.32 217.57 178.91 214.11 178.91"/><polygon class="cls-228" points="213.89 178.91 116.8 178.91 104.98 178.91 104.98 66.32 217.57 66.32 217.57 178.91 213.89 178.91"/><polygon class="cls-229" points="213.67 178.91 117.14 178.91 104.98 178.91 104.98 66.32 217.57 66.32 217.57 178.91 213.67 178.91"/><polygon class="cls-230" points="213.44 178.91 117.48 178.91 104.98 178.91 104.98 66.32 217.57 66.32 217.57 178.91 213.44 178.91"/><polygon class="cls-231" points="213.22 178.91 117.82 178.91 104.98 178.91 104.98 66.32 217.57 66.32 217.57 178.91 213.22 178.91"/><polygon class="cls-232" points="213 178.91 118.16 178.91 104.98 178.91 104.98 66.32 217.57 66.32 217.57 178.91 213 178.91"/><polygon class="cls-233" points="212.77 178.91 118.5 178.91 104.98 178.91 104.98 66.32 217.57 66.32 217.57 178.91 212.77 178.91"/><polygon class="cls-234" points="212.55 178.91 118.84 178.91 104.98 178.91 104.98 66.32 217.57 66.32 217.57 178.91 212.55 178.91"/><polygon class="cls-235" points="212.33 178.91 119.18 178.91 104.98 178.91 104.98 66.32 217.57 66.32 217.57 178.91 212.33 178.91"/><polygon class="cls-236" points="212.1 178.91 119.52 178.91 104.98 178.91 104.98 66.32 217.57 66.32 217.57 178.91 212.1 178.91"/><polygon class="cls-237" points="211.88 178.91 119.86 178.91 104.98 178.91 104.98 66.32 217.57 66.32 217.57 178.91 211.88 178.91"/><polygon class="cls-238" points="211.66 178.91 120.2 178.91 104.98 178.91 104.98 66.32 217.57 66.32 217.57 178.91 211.66 178.91"/><polygon class="cls-239" points="211.44 178.91 120.54 178.91 104.98 178.91 104.98 66.32 217.57 66.32 217.57 178.91 211.44 178.91"/><polygon class="cls-240" points="211.21 178.91 120.88 178.91 104.98 178.91 104.98 66.32 217.57 66.32 217.57 178.91 211.21 178.91"/><polygon class="cls-241" points="210.99 178.91 121.22 178.91 104.98 178.91 104.98 66.32 217.57 66.32 217.57 178.91 210.99 178.91"/><polygon class="cls-242" points="210.77 178.91 121.56 178.91 104.98 178.91 104.98 66.32 217.57 66.32 217.57 178.91 210.77 178.91"/><polygon class="cls-243" points="210.54 178.91 121.89 178.91 104.98 178.91 104.98 66.32 217.57 66.32 217.57 178.91 210.54 178.91"/><polygon class="cls-244" points="210.32 178.91 122.23 178.91 104.98 178.91 104.98 66.32 217.57 66.32 217.57 178.91 210.32 178.91"/><polygon class="cls-245" points="210.1 178.91 122.57 178.91 104.98 178.91 104.98 66.32 217.57 66.32 217.57 178.91 210.1 178.91"/><polygon class="cls-246" points="209.87 178.91 122.91 178.91 104.98 178.91 104.98 66.32 217.57 66.32 217.57 178.91 209.87 178.91"/><polygon class="cls-247" points="209.65 178.91 123.25 178.91 104.98 178.91 104.98 66.32 217.57 66.32 217.57 178.91 209.65 178.91"/><polygon class="cls-248" points="209.43 178.91 123.59 178.91 104.98 178.91 104.98 66.32 217.57 66.32 217.57 178.91 209.43 178.91"/><polygon class="cls-249" points="209.21 178.91 123.93 178.91 104.98 178.91 104.98 66.32 217.57 66.32 217.57 178.91 209.21 178.91"/><polygon class="cls-250" points="208.98 178.91 124.27 178.91 104.98 178.91 104.98 66.32 217.57 66.32 217.57 178.91 208.98 178.91"/><polygon class="cls-251" points="208.76 178.91 124.61 178.91 104.98 178.91 104.98 66.32 217.57 66.32 217.57 178.91 208.76 178.91"/><polygon class="cls-252" points="208.53 178.91 124.95 178.91 104.98 178.91 104.98 66.32 217.57 66.32 217.57 178.91 208.53 178.91"/><polygon class="cls-253" points="208.31 178.91 125.29 178.91 104.98 178.91 104.98 66.32 217.57 66.32 217.57 178.91 208.31 178.91"/><polygon class="cls-254" points="208.09 178.91 125.63 178.91 104.98 178.91 104.98 66.32 217.57 66.32 217.57 178.91 208.09 178.91"/><polygon class="cls-255" points="207.87 178.91 125.97 178.91 104.98 178.91 104.98 66.32 217.57 66.32 217.57 178.91 207.87 178.91"/><polygon class="cls-256" points="207.64 178.91 126.31 178.91 104.98 178.91 104.98 66.32 217.57 66.32 217.57 178.91 207.64 178.91"/><polygon class="cls-257" points="207.42 178.91 126.65 178.91 104.98 178.91 104.98 66.32 217.57 66.32 217.57 178.91 207.42 178.91"/><polygon class="cls-258" points="207.2 178.91 126.99 178.91 104.98 178.91 104.98 66.32 217.57 66.32 217.57 178.91 207.2 178.91"/><polygon class="cls-259" points="206.97 178.91 127.33 178.91 104.98 178.91 104.98 66.32 217.57 66.32 217.57 178.91 206.97 178.91"/><polygon class="cls-260" points="206.75 178.91 127.67 178.91 104.98 178.91 104.98 66.32 217.57 66.32 217.57 178.91 206.75 178.91"/><polygon class="cls-261" points="206.53 178.91 128 178.91 104.98 178.91 104.98 66.32 217.57 66.32 217.57 178.91 206.53 178.91"/><polygon class="cls-262" points="206.31 178.91 128.34 178.91 104.98 178.91 104.98 66.32 217.57 66.32 217.57 178.91 206.31 178.91"/><polygon class="cls-263" points="206.08 178.91 128.68 178.91 104.98 178.91 104.98 66.32 217.57 66.32 217.57 178.91 206.08 178.91"/><polygon class="cls-264" points="205.86 178.91 129.02 178.91 104.98 178.91 104.98 66.32 217.57 66.32 217.57 178.91 205.86 178.91"/><polygon class="cls-265" points="205.64 178.91 129.36 178.91 104.98 178.91 104.98 66.32 217.57 66.32 217.57 178.91 205.64 178.91"/><polygon class="cls-266" points="205.41 178.91 129.7 178.91 104.98 178.91 104.98 66.32 217.57 66.32 217.57 178.91 205.41 178.91"/><polygon class="cls-267" points="205.19 178.91 130.04 178.91 104.98 178.91 104.98 66.32 217.57 66.32 217.57 178.91 205.19 178.91"/><polygon class="cls-268" points="204.97 178.91 130.38 178.91 104.98 178.91 104.98 66.32 217.57 66.32 217.57 178.91 204.97 178.91"/><path class="cls-269" d="M204.74,178.92H105V69.68H99.32a96.85,96.85,0,0,1,13-13.52V66.32H217.57V178.92Z"/><path class="cls-270" d="M204.52,178.92H105V70.14H99.9a96.12,96.12,0,0,1,12.91-13.41v9.6H217.57V178.92Z"/><path class="cls-271" d="M204.3,178.92H105V70.59h-4.5a95.38,95.38,0,0,1,12.81-13.31v9H217.57V178.92Z"/><path class="cls-272" d="M204.07,178.92H105V71.05h-3.92a94.64,94.64,0,0,1,12.71-13.21v8.48h103.8V178.92Z"/><path class="cls-273" d="M203.85,178.92H105V71.51h-3.34a93.91,93.91,0,0,1,12.62-13.11v7.92H217.57V178.92Z"/><path class="cls-274" d="M203.63,178.92H105V72h-2.77a93.17,93.17,0,0,1,12.52-13v7.36H217.57V178.92Z"/><path class="cls-275" d="M203.41,178.92H105V72.43h-2.19a92.44,92.44,0,0,1,12.42-12.9v6.8H217.57V178.92Z"/><path class="cls-276" d="M203.18,178.92H105v-106h-1.61a91.7,91.7,0,0,1,12.32-12.8v6.23H217.57V178.92Z"/><path class="cls-277" d="M203,178.92H106.05v10.3a90.48,90.48,0,0,1-10.24-14.71H105V88H94.45a91.31,91.31,0,0,1,21.71-27.39v5.67h101.4V178.92Z"/><path class="cls-278" d="M202.74,178.92H106.61v9.82a89.74,89.74,0,0,1-10.16-14.59H105V88.38H95.11a90.58,90.58,0,0,1,21.54-27.16v5.11H217.57V178.92Z"/><path class="cls-279" d="M202.51,178.92H107.17v9.34A89,89,0,0,1,97.1,173.79H105V88.71H95.76a89.84,89.84,0,0,1,21.36-26.94v4.55H217.57V178.92Z"/><path class="cls-280" d="M202.29,178.92H107.73v8.86a88.28,88.28,0,0,1-10-14.35H105V89.05H96.42A89.1,89.1,0,0,1,117.6,62.33v4h100V178.92Z"/><path class="cls-281" d="M202.07,178.92H108.3v8.39a87.55,87.55,0,0,1-9.91-14.23H105V89.39H97.07a88.36,88.36,0,0,1,21-26.5v3.43h99.49V178.92Z"/><path class="cls-282" d="M201.84,178.92h-93v7.91A86.82,86.82,0,0,1,99,172.71H105v-83H97.73a87.62,87.62,0,0,1,20.84-26.28v2.87h99V178.92Z"/><path class="cls-283" d="M201.62,178.92h-92.2v7.43a86.08,86.08,0,0,1-9.74-14H105V90.07h-6.6A86.88,86.88,0,0,1,119,64v2.31h98.53V178.92Z"/><path class="cls-284" d="M201.4,178.92H110v6.95A85.35,85.35,0,0,1,100.32,172H105V90.41H99a86.14,86.14,0,0,1,20.48-25.83v1.75h98V178.92Z"/><path class="cls-285" d="M201.17,178.92H110.54v6.47A84.62,84.62,0,0,1,101,171.63h4V90.75H99.69A85.4,85.4,0,0,1,120,65.14v1.18h97.57V178.92Z"/><path class="cls-286" d="M201,178.92H111.1v6a84.26,84.26,0,0,1-16.28-29.35H105V91.09h-4.63A84.66,84.66,0,0,1,120.48,65.7v.62h97.09V178.92Z"/><path class="cls-287" d="M200.73,178.92H111.66v5.51a83.53,83.53,0,0,1-16.14-29.1H105V91.43h-4a83.93,83.93,0,0,1,20-25.17v.06h96.61V178.92Z"/><path class="cls-288" d="M200.51,178.92H112.22v5a82.79,82.79,0,0,1-16-28.84H105V91.77h-3.32a82.79,82.79,0,0,1,33.18-34.28v8.83h82.74V178.92Z"/><path class="cls-289" d="M200.28,178.92h-87.5v4.55a82.06,82.06,0,0,1-15.85-28.59h8V92.11h-2.67a82.06,82.06,0,0,1,32.88-34v8.18h82.37V178.92Z"/><path class="cls-290" d="M200.06,178.92H113.34V183a81.32,81.32,0,0,1-15.71-28.33H105V92.45h-2a81.32,81.32,0,0,1,32.59-33.67v7.54h82V178.92Z"/><path class="cls-291" d="M199.84,178.92H113.91v3.59a80.59,80.59,0,0,1-15.57-28.07H105V92.79h-1.36a80.59,80.59,0,0,1,32.29-33.36v6.9H212.6v-8.1a81.24,81.24,0,0,1,13,8.42h-8.05V178.92Z"/><path class="cls-292" d="M199.61,178.92H114.47V182A79.85,79.85,0,0,1,99,154.21H105V93.13h-.7a79.85,79.85,0,0,1,32-33.06v6.25h76V58.87a80.5,80.5,0,0,1,12.91,8.34h-7.59v111.7Z"/><path class="cls-293" d="M199.39,178.92H115v2.63A79.12,79.12,0,0,1,99.74,154H105V93.47h0a79.12,79.12,0,0,1,31.71-32.75v5.61h75.28V59.53a79.76,79.76,0,0,1,12.79,8.27h-7.14V178.92Z"/><path class="cls-294" d="M199.17,178.92H115.59v2.16a78.38,78.38,0,0,1-15.14-27.3H105v-31h-7.9A78.6,78.6,0,0,1,137,61.36v5h74.58V60.18a79,79,0,0,1,12.67,8.19h-6.68V178.92Z"/><path class="cls-295" d="M198.94,178.92H116.15v1.68A77.91,77.91,0,0,1,151.84,55.75V66.32h59.4V60.84A78.28,78.28,0,0,1,223.79,69h-6.22v110Z"/><path class="cls-296" d="M198.72,178.92h-82v1.2A77.17,77.17,0,0,1,152.06,56.45v9.87H210.9V61.49a77.54,77.54,0,0,1,12.43,8h-5.76V178.92Z"/><path class="cls-297" d="M198.5,178.92H117.27v.72a76.43,76.43,0,0,1,35-122.48v9.17h58.27V62.15a76.79,76.79,0,0,1,12.31,8h-5.3V178.92Z"/><path class="cls-298" d="M198.28,178.92H117.83v.24a75.7,75.7,0,0,1,34.68-121.3v8.47h57.71V62.8a76.05,76.05,0,0,1,12.19,7.88h-4.84V178.92Z"/><path class="cls-299" d="M198.05,178.92H128.83v9.8a74.95,74.95,0,0,1,23.9-130.16v7.76h57.15V63.46A75.31,75.31,0,0,1,222,71.26h-4.39V178.92Z"/><path class="cls-300" d="M197.83,178.92H129.29v9.23A74.21,74.21,0,0,1,153,59.26v7.06h56.58V64.11a74.57,74.57,0,0,1,12,7.73h-3.93V178.92Z"/><path class="cls-301" d="M197.61,178.92H129.75v8.65A73.47,73.47,0,0,1,153.18,60v6.36h56V64.77A73.83,73.83,0,0,1,221,72.42h-3.47v106.5Z"/><path class="cls-225" d="M197.38,178.92H130.2V187A72.73,72.73,0,0,1,153.4,60.67v5.65h55.46v-.9A73.09,73.09,0,0,1,220.58,73h-3V178.92Z"/><path class="cls-213" d="M197.16,178.92h-66.5v7.49a72,72,0,0,1,23-125v5h54.9v-.24a72.35,72.35,0,0,1,11.6,7.5h-2.55V178.92Z"/><path class="cls-212" d="M196.94,178.92H131.12v6.91A71.26,71.26,0,0,1,219.66,74.15h-2.09V178.92Z"/><path class="cls-211" d="M196.71,178.92H131.58v6.34A70.52,70.52,0,0,1,219.21,74.73h-1.64V178.92Z"/><path class="cls-210" d="M196.49,178.92H132v5.76A69.78,69.78,0,0,1,218.75,75.31h-1.18V178.92Z"/><path class="cls-209" d="M196.27,178.92H132.5v5.18a69,69,0,1,1,95.41-99H217.57v93.77Z"/><path class="cls-208" d="M196,178.92H133v4.6a68.31,68.31,0,1,1,94.39-97.9h-9.77v93.29Z"/><path class="cls-207" d="M195.82,178.92H133.41v4A67.57,67.57,0,1,1,226.78,86.1h-9.21v92.82Z"/><path class="cls-207" d="M195.6,178.92h-51v10.4A66.83,66.83,0,1,1,226.22,86.58h-8.65v92.34Z"/><path class="cls-206" d="M195.54,178.92h-50.8v10.22A66.62,66.62,0,1,1,226.06,86.71h-8.49v92.2Z"/><path class="cls-205" d="M195.47,178.92H144.83v10A66.41,66.41,0,1,1,225.9,86.85h-8.33v92.07Z"/><path class="cls-204" d="M195.41,178.92H144.93v9.85A66.2,66.2,0,1,1,225.75,87h-8.18v91.93Z"/><path class="cls-203" d="M195.35,178.92H145v9.67A66,66,0,1,1,225.59,87.12h-8v91.8Z"/><path class="cls-202" d="M195.28,178.92H145.12v9.48A65.79,65.79,0,1,1,225.43,87.25h-7.86v91.66Z"/><path class="cls-201" d="M195.22,178.92h-50v9.3A65.58,65.58,0,1,1,225.27,87.39h-7.7v91.53Z"/><path class="cls-200" d="M195.16,178.92H145.31V188A65.37,65.37,0,1,1,225.11,87.52h-7.55v91.39Z"/><path class="cls-199" d="M195.1,178.92H145.4v8.93A65.17,65.17,0,1,1,225,87.66h-7.39v91.26Z"/><path class="cls-198" d="M195,178.92H145.5v8.75a65,65,0,1,1,79.3-99.87h-7.23v91.12Z"/><path class="cls-197" d="M195,178.92H145.59v8.56a64.75,64.75,0,1,1,79-99.55h-7.07v82.3h8.57a64.61,64.61,0,0,1-8.68,9v-.33Z"/><path class="cls-196" d="M194.91,178.92H145.69v8.38a64.54,64.54,0,1,1,78.79-99.23h-6.91v82H226a64.4,64.4,0,0,1-8.65,9v-.17Z"/><path class="cls-195" d="M194.85,178.92H145.78v8.2A64.34,64.34,0,1,1,224.33,88.2h-6.76V170h8.24a64.19,64.19,0,0,1-8.62,9H194.85Z"/><path class="cls-194" d="M194.78,178.92h-48.9v8a64.13,64.13,0,1,1,78.29-98.6h-6.6v81.51h8.08A63.78,63.78,0,0,1,206.71,186v-7.05Z"/><path class="cls-193" d="M194.72,178.92H146v7.83a63.92,63.92,0,1,1,78-98.28h-6.44v81.24h7.92a63.57,63.57,0,0,1-18.88,16.08v-6.87Z"/><path class="cls-192" d="M194.66,178.92H146.07v7.64a63.72,63.72,0,1,1,77.78-98h-6.28v81h7.75a63.37,63.37,0,0,1-18.82,16v-6.69Z"/><path class="cls-191" d="M194.6,178.92H146.17v7.46A63.51,63.51,0,1,1,223.7,88.73h-6.13v80.72h7.59a63.16,63.16,0,0,1-18.76,16v-6.51Z"/><path class="cls-190" d="M194.53,178.92H146.26v7.28a63.3,63.3,0,1,1,77.28-97.32h-6v80.45H225a63,63,0,0,1-18.7,15.92v-6.33Z"/><path class="cls-189" d="M194.47,178.92H146.36V186a63.09,63.09,0,1,1,77-97h-5.81v80.19h7.27a62.75,62.75,0,0,1-18.63,15.87v-6.15Z"/><path class="cls-188" d="M194.41,178.92h-48v6.91a62.89,62.89,0,1,1,76.77-96.68h-5.65v79.93h7.1a62.54,62.54,0,0,1-18.57,15.82v-6Z"/><path class="cls-187" d="M194.34,178.92h-47.8v6.72a62.68,62.68,0,1,1,76.52-96.36h-5.5v79.66h6.94A62.34,62.34,0,0,1,206,184.7v-5.79Z"/><path class="cls-186" d="M194.28,178.92H146.64v6.54a62.47,62.47,0,1,1,76.26-96h-5.34v79.4h6.78a62.13,62.13,0,0,1-18.45,15.71v-5.61Z"/><path class="cls-185" d="M194.22,178.92H146.74v6.35a62.26,62.26,0,1,1,76-95.73h-5.18v79.14h6.62a62,62,0,0,1-30,20.66Z"/><path class="cls-184" d="M194.16,178.92H146.83v6.17a62.06,62.06,0,1,1,75.76-95.41h-5v78.87H224a61.77,61.77,0,0,1-29.87,20.59Z"/><path class="cls-183" d="M194.09,178.92H146.93v6a61.85,61.85,0,1,1,75.5-95.09h-4.86v78.61h6.29a61.56,61.56,0,0,1-29.77,20.52Z"/><path class="cls-182" d="M194,178.92H147v5.8a61.64,61.64,0,1,1,75.25-94.77h-4.71v78.35h6.13A61.35,61.35,0,0,1,194,188.75Z"/><path class="cls-181" d="M194,178.92H147.12v5.62a61.43,61.43,0,1,1,75-94.45h-4.55v78.08h6A61.15,61.15,0,0,1,194,188.55Z"/><path class="cls-180" d="M193.91,178.92H147.22v5.43A61.23,61.23,0,1,1,222,90.22h-4.39V168h5.8a60.94,60.94,0,0,1-29.47,20.32Z"/><path class="cls-179" d="M193.84,178.92H147.31v5.25A61,61,0,1,1,221.8,90.35h-4.23v77.55h5.64a60.73,60.73,0,0,1-29.37,20.25Z"/><path class="cls-178" d="M193.78,178.92H147.41V184a60.81,60.81,0,1,1,74.24-93.5h-4.08v77.29H223A60.53,60.53,0,0,1,193.78,188Z"/><path class="cls-177" d="M193.72,178.92H147.5v4.88a60.61,60.61,0,1,1,74-93.18h-3.92v77h5.32a60.32,60.32,0,0,1-29.17,20.11Z"/><path class="cls-176" d="M193.65,178.92H147.6v4.7a60.4,60.4,0,1,1,73.73-92.86h-3.76v76.76h5.15a60.12,60.12,0,0,1-29.07,20Z"/><path class="cls-175" d="M193.59,178.92h-45.9v4.51a60.19,60.19,0,1,1,73.48-92.54h-3.6v76.5h5a59.91,59.91,0,0,1-29,20Z"/><path class="cls-174" d="M193.53,178.92H147.79v4.33A60,60,0,1,1,221,91h-3.45v76.24h4.83a59.7,59.7,0,0,1-28.87,19.91Z"/><path class="cls-173" d="M193.47,178.92H147.88v4.15a59.78,59.78,0,1,1,73-91.9h-3.29v76h4.67A59.5,59.5,0,0,1,193.47,187Z"/><path class="cls-172" d="M193.4,178.92H148v4A59.57,59.57,0,1,1,220.7,91.29h-3.13V167h4.5a59.29,59.29,0,0,1-28.67,19.77Z"/><path class="cls-171" d="M193.34,178.92H148.07v3.78a59.36,59.36,0,1,1,72.47-91.26h-3v65.88h10.52a59.18,59.18,0,0,1-34.75,29.26Z"/><path class="cls-170" d="M193.28,178.92H148.17v3.59a59.15,59.15,0,1,1,72.21-90.95h-2.81v65.65h10.34a59,59,0,0,1-34.63,29.16Z"/><path class="cls-169" d="M193.22,178.92h-45v3.41a58.95,58.95,0,1,1,72-90.63h-2.66v65.42h10.16a58.76,58.76,0,0,1-34.51,29.06Z"/><path class="cls-168" d="M193.15,178.92H148.36v3.23a58.74,58.74,0,1,1,71.71-90.31h-2.5V157h10a58.56,58.56,0,0,1-34.39,29Z"/><path class="cls-167" d="M193.09,178.92H148.46v3a58.53,58.53,0,1,1,71.45-90h-2.34v65h9.79a58.35,58.35,0,0,1-34.27,28.86Z"/><path class="cls-166" d="M193,178.92H148.55v2.86a58.32,58.32,0,1,1,71.2-89.67h-2.18v64.73h9.6A58.14,58.14,0,0,1,193,185.59Z"/><path class="cls-165" d="M193,178.92H148.65v2.67A58.12,58.12,0,1,1,219.6,92.24h-2v64.5H227a57.94,57.94,0,0,1-34,28.65Z"/><path class="cls-164" d="M192.9,178.92H148.74v2.49a57.91,57.91,0,1,1,70.7-89h-1.87v64.27h9.24a57.73,57.73,0,0,1-33.9,28.55Z"/><path class="cls-163" d="M192.84,178.92h-44v2.31a57.7,57.7,0,1,1,70.44-88.71h-1.71v64h9.05A57.52,57.52,0,0,1,192.84,185Z"/><path class="cls-162" d="M192.78,178.92H148.93V181a57.5,57.5,0,1,1,70.19-88.4h-1.55v63.81h8.87a57.32,57.32,0,0,1-33.66,28.34Z"/><path class="cls-161" d="M192.71,178.92H149v1.94A57.29,57.29,0,1,1,219,92.78h-1.4v63.58h8.68a57.11,57.11,0,0,1-33.54,28.24Z"/><path class="cls-160" d="M192.65,178.92H149.12v1.75a57.08,57.08,0,1,1,69.68-87.76h-1.24v63.35h8.5a56.9,56.9,0,0,1-33.42,28.14Z"/><path class="cls-159" d="M192.59,178.92H149.22v1.57A56.87,56.87,0,1,1,218.65,93h-1.08v63.12h8.32a56.7,56.7,0,0,1-33.3,28Z"/><path class="cls-158" d="M192.53,178.92H149.31v1.38a56.67,56.67,0,1,1,69.18-87.12h-.92v62.89h8.13A56.49,56.49,0,0,1,192.53,184Z"/><path class="cls-157" d="M192.46,178.92H149.41v1.2a56.46,56.46,0,1,1,68.92-86.8h-.76V156h7.95a56.28,56.28,0,0,1-33.05,27.83Z"/><path class="cls-156" d="M192.4,178.92h-42.9v1a56.25,56.25,0,1,1,68.67-86.48h-.61v62.43h7.76a56.08,56.08,0,0,1-32.93,27.73Z"/><path class="cls-155" d="M192.34,178.92H149.6v.83A56,56,0,1,1,218,93.58h-.45v62.2h7.58a55.87,55.87,0,0,1-32.81,27.63Z"/><path class="cls-154" d="M192.28,178.92H149.7v.65a55.84,55.84,0,1,1,68.16-85.85h-.29v62H225a55.66,55.66,0,0,1-32.69,27.53Z"/><path class="cls-153" d="M192.21,178.92H149.79v.46A55.63,55.63,0,1,1,217.7,93.85h-.13v61.74h7.21A55.46,55.46,0,0,1,192.21,183Z"/><path class="cls-152" d="M192.15,178.92H149.89v.28a55.43,55.43,0,1,1,73.88-76.27h-6.2V155.5h7a55.25,55.25,0,0,1-32.45,27.32Z"/><path class="cls-151" d="M192.09,178.92H150v.1a55.21,55.21,0,1,1,78-65.72H217.57v42.1h6.84a55,55,0,0,1-32.33,27.22Z"/><path class="cls-150" d="M192,182.42a55,55,0,1,1,35.8-69.06H217.57v41.95h6.66A54.84,54.84,0,0,1,192,182.42Z"/><path class="cls-149" d="M192,182.23a54.8,54.8,0,1,1,35.66-68.8H217.57v41.79H224A54.63,54.63,0,0,1,192,182.23Z"/><path class="cls-148" d="M191.9,182a54.59,54.59,0,1,1,35.53-68.54h-9.86v41.63h6.29A54.42,54.42,0,0,1,191.9,182Z"/><path class="cls-147" d="M191.84,181.83a54.39,54.39,0,1,1,35.39-68.28h-9.66V155h6.11A54.21,54.21,0,0,1,191.84,181.83Z"/><path class="cls-146" d="M191.77,181.63a54.18,54.18,0,1,1,35.26-68h-9.46v41.31h5.92A54,54,0,0,1,191.77,181.63Z"/><path class="cls-145" d="M191.71,181.44a54,54,0,1,1,35.13-67.76h-9.27v41.16h5.74A53.8,53.8,0,0,1,191.71,181.44Z"/><path class="cls-144" d="M191.65,181.24a53.76,53.76,0,1,1,35-67.5h-9.07v41h5.55A53.59,53.59,0,0,1,191.65,181.24Z"/><path class="cls-143" d="M191.59,181a53.56,53.56,0,1,1,34.86-67.24h-8.87v40.84h5.37A53.39,53.39,0,0,1,191.59,181Z"/><path class="cls-142" d="M191.52,180.84a53.35,53.35,0,1,1,34.72-67h-8.67v40.68h5.19A53.18,53.18,0,0,1,191.52,180.84Z"/><path class="cls-141" d="M191.46,180.65A53.14,53.14,0,1,1,226,113.92h-8.48v40.52h5A53,53,0,0,1,191.46,180.65Z"/><path class="cls-140" d="M191.4,180.45A52.93,52.93,0,1,1,225.85,114h-8.28v40.37h4.82A52.77,52.77,0,0,1,191.4,180.45Z"/><path class="cls-139" d="M191.34,180.25A52.73,52.73,0,1,1,225.65,114h-8.08v40.21h4.63A52.56,52.56,0,0,1,191.34,180.25Z"/><path class="cls-138" d="M191.27,180.05a52.52,52.52,0,1,1,34.18-65.94h-7.88v40H222A52.35,52.35,0,0,1,191.27,180.05Z"/><path class="cls-137" d="M191.21,179.85a52.31,52.31,0,1,1,34-65.68h-7.69v39.89h4.27A52.15,52.15,0,0,1,191.21,179.85Z"/><path class="cls-136" d="M191.15,179.66a52.1,52.1,0,1,1,33.91-65.42h-7.49V154h4.08A51.94,51.94,0,0,1,191.15,179.66Z"/><path class="cls-135" d="M191.08,179.46a51.9,51.9,0,1,1,33.78-65.16h-7.29v39.58h3.9A51.73,51.73,0,0,1,191.08,179.46Z"/><path class="cls-134" d="M191,179.26a51.69,51.69,0,1,1,33.64-64.9h-7.09v39.42h3.71A51.53,51.53,0,0,1,191,179.26Z"/><path class="cls-133" d="M191,179.06a51.48,51.48,0,1,1,33.51-64.64h-6.9v39.26h3.53A51.32,51.32,0,0,1,191,179.06Z"/><path class="cls-132" d="M190.9,178.87a51.28,51.28,0,1,1,33.37-64.38h-6.7v39.1h3.35A51.11,51.11,0,0,1,190.9,178.87Z"/><path class="cls-131" d="M190.83,178.67a51.07,51.07,0,1,1,33.24-64.12h-6.5v38.94h3.16A50.91,50.91,0,0,1,190.83,178.67Z"/><path class="cls-130" d="M190.77,178.47a50.86,50.86,0,1,1,33.1-63.86h-6.3V153.4h3A50.7,50.7,0,0,1,190.77,178.47Z"/><path class="cls-129" d="M190.71,178.27a50.65,50.65,0,1,1,33-63.6h-6.1V153.3h2.79A50.49,50.49,0,0,1,190.71,178.27Z"/><path class="cls-128" d="M190.65,178.08a50.45,50.45,0,1,1,32.83-63.34h-5.91v38.47h2.61A50.29,50.29,0,0,1,190.65,178.08Z"/><path class="cls-127" d="M190.58,177.88a50.24,50.24,0,1,1,32.7-63.08h-5.71v38.31H220A50.08,50.08,0,0,1,190.58,177.88Z"/><path class="cls-126" d="M190.52,177.68a50,50,0,1,1,32.56-62.82h-5.51V153h2.24A49.87,49.87,0,0,1,190.52,177.68Z"/><path class="cls-125" d="M190.46,177.48a49.82,49.82,0,1,1,32.43-62.56h-5.31v38h2.06A49.67,49.67,0,0,1,190.46,177.48Z"/><path class="cls-124" d="M190.4,177.29A49.62,49.62,0,1,1,222.69,115h-5.12v37.84h1.87A49.46,49.46,0,0,1,190.4,177.29Z"/><path class="cls-123" d="M190.33,177.09a49.41,49.41,0,1,1,32.16-62h-4.92v37.68h1.69A49.25,49.25,0,0,1,190.33,177.09Z"/><path class="cls-122" d="M190.27,176.89a49.2,49.2,0,1,1,32-61.78h-4.72v37.52h1.5A49,49,0,0,1,190.27,176.89Z"/><path class="cls-121" d="M190.21,176.69a49,49,0,1,1,31.89-61.52h-4.52v37.36h1.32A48.84,48.84,0,0,1,190.21,176.69Z"/><path class="cls-120" d="M190.14,176.49a48.79,48.79,0,1,1,31.75-61.26h-4.33v37.2h1.14A48.63,48.63,0,0,1,190.14,176.49Z"/><path class="cls-119" d="M190.08,176.3a48.58,48.58,0,1,1,31.62-61h-4.13v37h1A48.43,48.43,0,0,1,190.08,176.3Z"/><path class="cls-118" d="M190,176.1a48.37,48.37,0,1,1,31.48-60.73h-3.93v36.89h.77A48.22,48.22,0,0,1,190,176.1Z"/><path class="cls-117" d="M190,175.9a48.17,48.17,0,1,1,31.35-60.47h-3.73v36.73h.58A48,48,0,0,1,190,175.9Z"/><path class="cls-116" d="M189.89,175.7a48,48,0,1,1,31.21-60.21h-3.54v36.57h.4A47.81,47.81,0,0,1,189.89,175.7Z"/><path class="cls-115" d="M189.83,175.51a47.75,47.75,0,1,1,31.08-60h-3.34V152h.22A47.6,47.6,0,0,1,189.83,175.51Z"/><path class="cls-114" d="M189.77,175.31a47.54,47.54,0,1,1,30.94-59.69h-3.14v36.26h0A47.39,47.39,0,0,1,189.77,175.31Z"/><path class="cls-113" d="M189.71,175.11a47.34,47.34,0,1,1,27.71-23.34A47.34,47.34,0,0,1,189.71,175.11Z"/><path class="cls-112" d="M189.64,174.91a47.13,47.13,0,1,1,27.59-23.23A47.13,47.13,0,0,1,189.64,174.91Z"/><circle class="cls-111" cx="175.39" cy="129.99" r="46.92" transform="translate(-31.1 59.12) rotate(-17.6)"/><circle class="cls-110" cx="175.39" cy="129.99" r="46.71" transform="matrix(0.95, -0.3, 0.3, 0.95, -31.1, 59.12)"/><circle class="cls-109" cx="175.39" cy="129.99" r="46.51" transform="matrix(0.95, -0.3, 0.3, 0.95, -31.1, 59.12)"/><circle class="cls-108" cx="175.39" cy="129.99" r="46.3" transform="translate(-31.1 59.12) rotate(-17.6)"/><circle class="cls-107" cx="175.39" cy="129.99" r="46.09" transform="translate(-31.1 59.12) rotate(-17.6)"/><circle class="cls-106" cx="175.39" cy="129.99" r="45.88" transform="translate(-31.1 59.12) rotate(-17.6)"/><circle class="cls-105" cx="175.39" cy="129.99" r="45.68" transform="translate(-31.1 59.12) rotate(-17.6)"/><circle class="cls-104" cx="175.39" cy="129.99" r="45.47" transform="translate(-31.1 59.12) rotate(-17.6)"/><circle class="cls-103" cx="175.39" cy="129.99" r="45.26" transform="matrix(0.95, -0.3, 0.3, 0.95, -31.1, 59.12)"/><circle class="cls-102" cx="175.39" cy="129.99" r="45.06" transform="matrix(0.95, -0.3, 0.3, 0.95, -31.1, 59.12)"/><circle class="cls-101" cx="175.39" cy="129.99" r="44.85" transform="translate(-31.1 59.12) rotate(-17.6)"/><circle class="cls-100" cx="175.39" cy="129.99" r="44.64" transform="translate(-31.1 59.12) rotate(-17.6)"/><circle class="cls-99" cx="175.39" cy="129.99" r="44.43" transform="translate(-31.1 59.12) rotate(-17.6)"/><circle class="cls-98" cx="175.39" cy="129.99" r="44.23" transform="translate(-31.1 59.12) rotate(-17.6)"/><circle class="cls-97" cx="175.39" cy="129.99" r="44.02" transform="translate(-31.1 59.12) rotate(-17.6)"/><circle class="cls-96" cx="175.39" cy="129.99" r="43.81" transform="translate(-31.1 59.12) rotate(-17.6)"/><circle class="cls-95" cx="175.39" cy="129.99" r="43.6" transform="translate(-31.1 59.12) rotate(-17.6)"/><circle class="cls-94" cx="175.39" cy="129.99" r="43.4" transform="translate(-31.1 59.12) rotate(-17.6)"/><circle class="cls-93" cx="175.39" cy="129.99" r="43.19" transform="translate(-31.1 59.12) rotate(-17.6)"/><circle class="cls-92" cx="175.39" cy="129.99" r="42.98" transform="translate(-31.1 59.12) rotate(-17.6)"/><circle class="cls-91" cx="175.39" cy="129.99" r="42.77" transform="translate(-31.1 59.12) rotate(-17.6)"/><circle class="cls-90" cx="175.39" cy="129.99" r="42.57" transform="translate(-31.1 59.12) rotate(-17.6)"/><circle class="cls-89" cx="175.39" cy="129.99" r="42.36" transform="translate(-31.1 59.12) rotate(-17.6)"/><circle class="cls-88" cx="175.39" cy="129.99" r="42.15" transform="translate(-31.1 59.12) rotate(-17.6)"/><circle class="cls-87" cx="175.39" cy="129.99" r="41.95" transform="translate(-31.1 59.12) rotate(-17.6)"/><circle class="cls-86" cx="175.39" cy="129.99" r="41.74" transform="translate(-31.1 59.12) rotate(-17.6)"/><circle class="cls-85" cx="175.39" cy="129.99" r="41.53" transform="translate(-31.1 59.12) rotate(-17.6)"/><circle class="cls-84" cx="175.39" cy="129.99" r="41.32" transform="translate(-31.1 59.12) rotate(-17.6)"/><circle class="cls-83" cx="175.39" cy="129.99" r="41.12" transform="translate(-31.1 59.12) rotate(-17.6)"/><circle class="cls-82" cx="175.39" cy="129.99" r="40.91" transform="translate(-31.1 59.12) rotate(-17.6)"/><circle class="cls-81" cx="175.39" cy="129.99" r="40.7" transform="translate(-31.1 59.12) rotate(-17.6)"/><circle class="cls-80" cx="175.39" cy="129.99" r="40.49" transform="translate(-31.1 59.12) rotate(-17.6)"/><circle class="cls-79" cx="175.39" cy="129.99" r="40.29" transform="translate(-31.1 59.12) rotate(-17.6)"/><circle class="cls-78" cx="175.39" cy="129.99" r="40.08" transform="translate(-31.1 59.12) rotate(-17.6)"/><circle class="cls-77" cx="175.39" cy="129.99" r="39.87" transform="translate(-31.1 59.12) rotate(-17.6)"/><circle class="cls-76" cx="175.39" cy="129.99" r="39.66" transform="translate(-31.1 59.12) rotate(-17.6)"/><circle class="cls-75" cx="175.39" cy="129.99" r="39.46" transform="matrix(0.95, -0.3, 0.3, 0.95, -31.1, 59.12)"/><circle class="cls-74" cx="175.39" cy="129.99" r="39.25" transform="translate(-31.1 59.12) rotate(-17.6)"/><circle class="cls-73" cx="175.39" cy="129.99" r="39.04" transform="translate(-31.1 59.12) rotate(-17.6)"/><circle class="cls-73" cx="175.39" cy="129.99" r="38.84" transform="translate(-31.1 59.12) rotate(-17.6)"/><circle class="cls-72" cx="175.39" cy="129.99" r="38.53" transform="translate(-31.1 59.12) rotate(-17.6)"/><circle class="cls-71" cx="175.39" cy="129.99" r="38.23" transform="translate(-31.1 59.12) rotate(-17.6)"/><circle class="cls-70" cx="175.39" cy="129.99" r="37.93" transform="translate(-31.1 59.12) rotate(-17.6)"/><circle class="cls-69" cx="175.39" cy="129.99" r="37.63" transform="translate(-31.1 59.12) rotate(-17.6)"/><circle class="cls-68" cx="175.39" cy="129.99" r="37.33" transform="translate(-31.1 59.12) rotate(-17.6)"/><circle class="cls-67" cx="175.39" cy="129.99" r="37.03" transform="translate(-31.1 59.12) rotate(-17.6)"/><circle class="cls-66" cx="175.39" cy="129.99" r="36.73" transform="translate(-31.1 59.12) rotate(-17.6)"/><circle class="cls-65" cx="175.39" cy="129.99" r="36.42" transform="translate(-31.1 59.12) rotate(-17.6)"/><circle class="cls-64" cx="175.39" cy="129.99" r="36.12" transform="translate(-31.1 59.12) rotate(-17.6)"/><circle class="cls-63" cx="175.39" cy="129.99" r="35.82" transform="translate(-31.1 59.12) rotate(-17.6)"/><circle class="cls-62" cx="175.39" cy="129.99" r="35.52" transform="translate(-31.1 59.12) rotate(-17.6)"/><circle class="cls-61" cx="175.39" cy="129.99" r="35.22" transform="translate(-31.1 59.12) rotate(-17.6)"/><circle class="cls-60" cx="175.39" cy="129.99" r="34.92" transform="translate(-31.1 59.12) rotate(-17.6)"/><circle class="cls-59" cx="175.39" cy="129.99" r="34.62" transform="matrix(0.95, -0.3, 0.3, 0.95, -31.1, 59.12)"/><circle class="cls-58" cx="175.39" cy="129.99" r="34.31" transform="translate(-31.1 59.12) rotate(-17.6)"/><circle class="cls-57" cx="175.39" cy="129.99" r="34.01" transform="translate(-31.1 59.12) rotate(-17.6)"/><circle class="cls-56" cx="175.39" cy="129.99" r="33.71" transform="translate(-31.1 59.12) rotate(-17.6)"/><circle class="cls-55" cx="175.39" cy="129.99" r="33.41" transform="translate(-31.1 59.12) rotate(-17.6)"/><circle class="cls-54" cx="175.39" cy="129.99" r="33.11" transform="translate(-31.1 59.12) rotate(-17.6)"/><circle class="cls-53" cx="175.39" cy="129.99" r="32.81" transform="translate(-31.1 59.12) rotate(-17.6)"/><circle class="cls-52" cx="175.39" cy="129.99" r="32.51" transform="translate(-31.1 59.12) rotate(-17.6)"/><circle class="cls-51" cx="175.39" cy="129.99" r="32.2" transform="translate(-31.1 59.12) rotate(-17.6)"/><circle class="cls-50" cx="175.39" cy="129.99" r="31.9" transform="translate(-31.1 59.12) rotate(-17.6)"/><circle class="cls-49" cx="175.39" cy="129.99" r="31.6" transform="translate(-31.1 59.12) rotate(-17.6)"/><circle class="cls-48" cx="175.39" cy="129.99" r="31.3" transform="translate(-31.1 59.12) rotate(-17.6)"/><circle class="cls-47" cx="175.39" cy="129.99" r="31" transform="translate(-31.1 59.12) rotate(-17.6)"/><circle class="cls-46" cx="175.39" cy="129.99" r="30.7" transform="translate(-31.1 59.12) rotate(-17.6)"/><circle class="cls-45" cx="175.39" cy="129.99" r="30.4" transform="translate(-31.1 59.12) rotate(-17.6)"/><circle class="cls-44" cx="175.39" cy="129.99" r="30.09" transform="translate(-31.1 59.12) rotate(-17.6)"/><circle class="cls-43" cx="175.39" cy="129.99" r="29.79" transform="translate(-31.1 59.12) rotate(-17.6)"/><circle class="cls-42" cx="175.39" cy="129.99" r="29.49" transform="translate(-31.1 59.12) rotate(-17.6)"/><circle class="cls-41" cx="175.39" cy="129.99" r="29.19" transform="translate(-31.1 59.12) rotate(-17.6)"/><circle class="cls-40" cx="175.39" cy="129.99" r="28.89" transform="translate(-31.1 59.12) rotate(-17.6)"/><circle class="cls-39" cx="175.39" cy="129.99" r="28.59" transform="translate(-31.1 59.12) rotate(-17.6)"/><circle class="cls-38" cx="175.39" cy="129.99" r="28.29" transform="translate(-31.1 59.12) rotate(-17.6)"/><circle class="cls-37" cx="175.39" cy="129.99" r="27.98" transform="translate(-31.1 59.12) rotate(-17.6)"/><circle class="cls-36" cx="175.39" cy="129.99" r="27.68" transform="translate(-31.1 59.12) rotate(-17.6)"/><circle class="cls-35" cx="175.39" cy="129.99" r="27.38" transform="translate(-31.1 59.12) rotate(-17.6)"/><circle class="cls-34" cx="175.39" cy="129.99" r="27.08" transform="matrix(0.95, -0.3, 0.3, 0.95, -31.1, 59.12)"/><circle class="cls-33" cx="175.39" cy="129.99" r="26.78" transform="translate(-31.1 59.12) rotate(-17.6)"/><circle class="cls-32" cx="175.39" cy="129.99" r="26.48" transform="translate(-31.1 59.12) rotate(-17.6)"/><circle class="cls-31" cx="175.39" cy="129.99" r="26.18" transform="translate(-31.1 59.12) rotate(-17.6)"/><circle class="cls-30" cx="175.39" cy="129.99" r="25.87" transform="translate(-31.1 59.12) rotate(-17.6)"/><circle class="cls-29" cx="175.39" cy="129.99" r="25.57" transform="translate(-31.1 59.12) rotate(-17.6)"/><circle class="cls-28" cx="175.39" cy="129.99" r="25.27" transform="translate(-31.1 59.12) rotate(-17.6)"/><circle class="cls-27" cx="175.39" cy="129.99" r="24.97" transform="translate(-31.1 59.12) rotate(-17.6)"/><circle class="cls-26" cx="175.39" cy="129.99" r="24.67" transform="translate(-31.1 59.12) rotate(-17.6)"/><circle class="cls-25" cx="175.39" cy="129.99" r="24.37" transform="translate(-31.1 59.12) rotate(-17.6)"/><circle class="cls-24" cx="175.39" cy="129.99" r="24.07" transform="translate(-31.1 59.12) rotate(-17.6)"/><circle class="cls-23" cx="175.39" cy="129.99" r="23.76" transform="translate(-31.1 59.12) rotate(-17.6)"/><circle class="cls-22" cx="175.39" cy="129.99" r="23.46" transform="translate(-31.1 59.12) rotate(-17.6)"/><circle class="cls-21" cx="175.39" cy="129.99" r="23.16" transform="translate(-31.1 59.12) rotate(-17.6)"/><circle class="cls-20" cx="175.39" cy="129.99" r="22.86" transform="matrix(0.95, -0.3, 0.3, 0.95, -31.1, 59.12)"/><circle class="cls-19" cx="175.39" cy="129.99" r="22.56" transform="translate(-31.1 59.12) rotate(-17.6)"/><circle class="cls-18" cx="175.39" cy="129.99" r="22.26" transform="translate(-31.1 59.12) rotate(-17.6)"/><circle class="cls-17" cx="175.39" cy="129.99" r="21.96" transform="translate(-31.1 59.12) rotate(-17.6)"/><circle class="cls-16" cx="175.39" cy="129.99" r="21.65" transform="translate(-31.1 59.12) rotate(-17.6)"/><circle class="cls-15" cx="175.39" cy="129.99" r="21.35" transform="matrix(0.95, -0.3, 0.3, 0.95, -31.1, 59.12)"/><circle class="cls-14" cx="175.39" cy="129.99" r="21.05" transform="translate(-31.1 59.12) rotate(-17.6)"/><circle class="cls-13" cx="175.39" cy="129.99" r="20.75" transform="translate(-31.1 59.12) rotate(-17.6)"/><circle class="cls-12" cx="175.39" cy="129.99" r="20.45" transform="translate(-31.1 59.12) rotate(-17.6)"/><circle class="cls-11" cx="175.39" cy="129.99" r="20.15" transform="translate(-31.1 59.12) rotate(-17.6)"/><circle class="cls-10" cx="175.39" cy="129.99" r="19.85" transform="translate(-31.1 59.12) rotate(-17.6)"/><circle class="cls-9" cx="175.39" cy="129.99" r="19.54" transform="translate(-31.1 59.12) rotate(-17.6)"/><circle class="cls-9" cx="175.39" cy="129.99" r="19.24" transform="translate(-31.1 59.12) rotate(-17.6)"/><circle class="cls-8" cx="175.39" cy="129.99" r="18.93" transform="translate(-31.1 59.12) rotate(-17.6)"/><circle class="cls-7" cx="175.39" cy="129.99" r="18.61" transform="matrix(0.95, -0.3, 0.3, 0.95, -31.1, 59.12)"/><circle class="cls-6" cx="175.39" cy="129.99" r="18.3" transform="translate(-31.1 59.12) rotate(-17.6)"/><circle class="cls-5" cx="175.39" cy="129.99" r="17.98" transform="translate(-31.1 59.12) rotate(-17.6)"/><circle class="cls-4" cx="175.39" cy="129.99" r="17.67" transform="translate(-31.1 59.12) rotate(-17.6)"/><circle class="cls-224" cx="175.39" cy="129.99" r="17.35" transform="translate(-31.1 59.12) rotate(-17.6)"/><circle class="cls-223" cx="175.39" cy="129.99" r="17.03" transform="translate(-31.1 59.12) rotate(-17.6)"/><circle class="cls-222" cx="175.39" cy="129.99" r="16.72" transform="translate(-31.1 59.12) rotate(-17.6)"/><circle class="cls-221" cx="175.39" cy="129.99" r="16.4" transform="translate(-31.1 59.12) rotate(-17.6)"/><circle class="cls-220" cx="175.39" cy="129.99" r="16.09" transform="translate(-31.1 59.12) rotate(-17.6)"/><circle class="cls-219" cx="175.39" cy="129.99" r="15.77" transform="translate(-31.1 59.12) rotate(-17.6)"/><circle class="cls-218" cx="175.39" cy="129.99" r="15.46" transform="matrix(0.95, -0.3, 0.3, 0.95, -31.1, 59.12)"/><circle class="cls-217" cx="175.39" cy="129.99" r="15.14" transform="translate(-31.1 59.12) rotate(-17.6)"/><circle class="cls-216" cx="175.39" cy="129.99" r="14.83" transform="translate(-31.1 59.12) rotate(-17.6)"/><circle class="cls-302" cx="175.39" cy="129.99" r="14.51" transform="translate(-31.1 59.12) rotate(-17.6)"/><circle class="cls-303" cx="175.39" cy="129.99" r="14.2" transform="translate(-31.1 59.12) rotate(-17.6)"/><circle class="cls-304" cx="175.39" cy="129.99" r="13.88" transform="translate(-31.1 59.12) rotate(-17.6)"/><circle class="cls-305" cx="175.39" cy="129.99" r="13.56" transform="translate(-31.1 59.12) rotate(-17.6)"/><circle class="cls-306" cx="175.39" cy="129.99" r="13.25" transform="translate(-31.1 59.12) rotate(-17.6)"/><circle class="cls-307" cx="175.39" cy="129.99" r="12.93" transform="translate(-31.1 59.12) rotate(-17.6)"/><circle class="cls-308" cx="175.39" cy="129.99" r="12.62" transform="translate(-31.1 59.12) rotate(-17.6)"/><circle class="cls-309" cx="175.39" cy="129.99" r="12.3" transform="translate(-31.1 59.12) rotate(-17.6)"/><circle class="cls-310" cx="175.39" cy="129.99" r="11.99" transform="matrix(0.95, -0.3, 0.3, 0.95, -31.1, 59.12)"/><circle class="cls-311" cx="175.39" cy="129.99" r="11.67" transform="translate(-31.1 59.12) rotate(-17.6)"/><circle class="cls-312" cx="175.39" cy="129.99" r="11.36" transform="translate(-31.1 59.12) rotate(-17.6)"/><circle class="cls-313" cx="175.39" cy="129.99" r="11.04" transform="translate(-31.1 59.12) rotate(-17.6)"/><circle class="cls-314" cx="175.39" cy="129.99" r="10.73" transform="translate(-31.1 59.12) rotate(-17.6)"/><circle class="cls-315" cx="175.39" cy="129.99" r="10.41" transform="translate(-31.1 59.12) rotate(-17.6)"/><circle class="cls-316" cx="175.39" cy="129.99" r="10.09" transform="translate(-31.1 59.12) rotate(-17.6)"/><circle class="cls-317" cx="175.39" cy="129.99" r="9.78" transform="matrix(0.95, -0.3, 0.3, 0.95, -31.1, 59.12)"/><circle class="cls-318" cx="175.39" cy="129.99" r="9.46" transform="translate(-31.1 59.12) rotate(-17.6)"/><circle class="cls-319" cx="175.39" cy="129.99" r="9.15" transform="translate(-31.1 59.12) rotate(-17.6)"/><circle class="cls-320" cx="175.39" cy="129.99" r="8.83" transform="translate(-31.1 59.12) rotate(-17.6)"/><circle class="cls-321" cx="175.39" cy="129.99" r="8.52" transform="matrix(0.95, -0.3, 0.3, 0.95, -31.1, 59.12)"/><circle class="cls-322" cx="175.39" cy="129.99" r="8.2" transform="translate(-31.1 59.12) rotate(-17.6)"/><circle class="cls-323" cx="175.39" cy="129.99" r="7.89" transform="translate(-31.1 59.12) rotate(-17.6)"/><circle class="cls-324" cx="175.39" cy="129.99" r="7.57" transform="translate(-31.1 59.12) rotate(-17.6)"/><circle class="cls-325" cx="175.39" cy="129.99" r="7.26" transform="translate(-31.1 59.12) rotate(-17.6)"/><circle class="cls-326" cx="175.39" cy="129.99" r="6.94" transform="translate(-31.1 59.12) rotate(-17.6)"/><circle class="cls-327" cx="175.39" cy="129.99" r="6.62" transform="translate(-31.1 59.12) rotate(-17.6)"/><circle class="cls-328" cx="175.39" cy="129.99" r="6.31" transform="translate(-31.1 59.12) rotate(-17.6)"/><circle class="cls-329" cx="175.39" cy="129.99" r="5.99" transform="translate(-31.1 59.12) rotate(-17.6)"/><circle class="cls-330" cx="175.39" cy="129.99" r="5.68" transform="translate(-31.1 59.12) rotate(-17.6)"/><circle class="cls-331" cx="175.39" cy="129.99" r="5.36" transform="translate(-31.1 59.12) rotate(-17.6)"/><circle class="cls-332" cx="175.39" cy="129.99" r="5.05" transform="matrix(0.95, -0.3, 0.3, 0.95, -31.1, 59.12)"/><circle class="cls-333" cx="175.39" cy="129.99" r="4.73" transform="translate(-31.1 59.12) rotate(-17.6)"/><circle class="cls-334" cx="175.39" cy="129.99" r="4.42" transform="translate(-31.1 59.12) rotate(-17.6)"/><circle class="cls-335" cx="175.39" cy="129.99" r="4.1" transform="translate(-31.1 59.12) rotate(-17.6)"/><circle class="cls-336" cx="175.39" cy="129.99" r="3.79" transform="translate(-31.1 59.12) rotate(-17.6)"/><circle class="cls-337" cx="175.39" cy="129.99" r="3.47" transform="translate(-31.1 59.12) rotate(-17.6)"/><circle class="cls-338" cx="175.39" cy="129.99" r="3.15" transform="translate(-31.1 59.12) rotate(-17.6)"/><circle class="cls-339" cx="175.39" cy="129.99" r="2.84" transform="translate(-31.1 59.12) rotate(-17.6)"/><circle class="cls-340" cx="175.39" cy="129.99" r="2.52" transform="matrix(0.95, -0.3, 0.3, 0.95, -31.1, 59.12)"/><circle class="cls-341" cx="175.39" cy="129.99" r="2.21" transform="translate(-31.1 59.12) rotate(-17.6)"/><circle class="cls-342" cx="175.39" cy="129.99" r="1.89" transform="translate(-31.1 59.12) rotate(-17.6)"/><circle class="cls-343" cx="175.39" cy="129.99" r="1.58" transform="translate(-31.1 59.12) rotate(-17.6)"/><circle class="cls-344" cx="175.39" cy="129.99" r="1.26" transform="translate(-31.1 59.12) rotate(-17.6)"/><circle class="cls-345" cx="175.39" cy="129.99" r="0.95" transform="translate(-31.1 59.12) rotate(-17.6)"/><circle class="cls-346" cx="175.39" cy="129.99" r="0.63" transform="translate(-31.1 59.12) rotate(-17.6)"/><circle class="cls-347" cx="175.39" cy="129.99" r="0.32" transform="translate(-31.1 59.12) rotate(-17.6)"/></g><path class="cls-214" d="M161.27,66.63c-1.39,0-2.76,0-4.12.15s-2.4.21-3.58.38a56,56,0,1,0,7.7-.53Zm0,109.56a53.57,53.57,0,1,1,53.57-53.57A53.65,53.65,0,0,1,161.27,176.19Z"/><path class="cls-214" d="M216.07,86.71c-7-8.08-13.81-9-18.27-8.3-5.76.85-10.65,5.86-12.54,9-3.85,6.49-.21,19.78,4,26.07,3.76,5.66,21,34.93-9.52,55.41-9.17,6.16-17.86,8.43-25.81,6.76l-.59,2.36a24.21,24.21,0,0,0,6.37.69c6.88,0,16-1.56,23.07-2.91l.6-.11a43.31,43.31,0,0,0,10.28-3.66c21.78-10.9,29.22-27.59,31.62-39.68C229,113.84,223.27,95,216.07,86.71Zm6.82,45.19c-2.3,11.55-9.42,27.52-30.32,38h0a41,41,0,0,1-9.64,3.45l-.61.11c-1.75.34-4.68.9-8.05,1.43a54.27,54.27,0,0,0,6.83-3.94c32.41-21.75,14.17-52.77,10.18-58.76-3.77-5.64-7.25-17.89-3.92-23.49,1.58-2.66,5.92-7.15,10.81-7.87a12.71,12.71,0,0,1,2-.16c4.86,0,9.68,2.61,14,7.65C220.08,95,226.64,113,222.89,131.9Z"/><path class="cls-348" d="M222.89,131.9c-2.3,11.55-9.42,27.52-30.32,38h0a41,41,0,0,1-9.64,3.45l-.61.11c-1.75.34-4.68.9-8.05,1.43a54.27,54.27,0,0,0,6.83-3.94c32.41-21.75,14.17-52.77,10.18-58.76-3.77-5.64-7.25-17.89-3.92-23.49,1.58-2.66,5.92-7.15,10.81-7.87a12.71,12.71,0,0,1,2-.16c4.86,0,9.68,2.61,14,7.65C220.08,95,226.64,113,222.89,131.9Z"/><path class="cls-214" d="M159.75,133.29l-3.13,5.25a3.52,3.52,0,0,1-4.46,1L146,136a2.17,2.17,0,0,1,.64-4.07l10.8-2.07A2.2,2.2,0,0,1,159.75,133.29Z"/><path class="cls-214" d="M167.48,140.67c-.3,1.35-1.64,5.08-4.13,6.1-1.43.58-3.15.23-5.12-1a6.15,6.15,0,0,1-2.63-3.84c-.16-.71-.34-1.58-.51-2.64l-2.24.37c.18,1.11.37,2,.54,2.78a8.68,8.68,0,0,0,1.22,2.84c-1.57,2.83-3.37,4.41-5.37,4.67-3.33.42-6.36-2.91-6.39-2.95l-1.7,1.51c.14.16,3.36,3.75,7.49,3.75a7.06,7.06,0,0,0,.88-.05c2.58-.32,4.82-2.06,6.7-5.15a8.11,8.11,0,0,0,.79.63,9.17,9.17,0,0,0,4.92,1.68,6,6,0,0,0,2.29-.45c4.09-1.67,5.43-7.46,5.49-7.71Z"/><path class="cls-2" d="M144.07,112.88c-4.1,1.35-6.88,2.63-8.8,7-1.23,2.81-7.45,4.19-10,.45s-.29-21.48,15.49-22.18c0,0,6.4-.29,8.62,3.88S148.27,111.49,144.07,112.88Z"/><path class="cls-214" d="M129.93,123.76a6.71,6.71,0,0,1-5.64-2.76c-1.66-2.38-1.61-8.6,1.1-14.08A17.21,17.21,0,0,1,140.66,97c.29,0,7.15-.27,9.67,4.48a7.72,7.72,0,0,1,.25,6.6,10.33,10.33,0,0,1-6.16,5.85h0c-3.75,1.23-6.34,2.34-8.12,6.39-.77,1.77-3,3.12-5.56,3.37C130.47,123.74,130.2,123.76,129.93,123.76ZM141,99.3h-.2a14.85,14.85,0,0,0-13.33,8.62c-2.4,4.86-2.35,10.22-1.27,11.78a4.7,4.7,0,0,0,4.37,1.76c1.7-.17,3.26-1,3.7-2,2.15-4.89,5.43-6.3,9.49-7.63a8.12,8.12,0,0,0,4.76-4.54,5.46,5.46,0,0,0-.15-4.69C146.67,99.47,142,99.3,141,99.3Z"/><path class="cls-2" d="M163.15,111.74c4.1,1.35,6.88,2.63,8.8,7,1.23,2.81,7.45,4.19,10,.45s.29-21.48-15.49-22.18c0,0-6.4-.29-8.62,3.88S159,110.34,163.15,111.74Z"/><path class="cls-214" d="M177.29,122.61c-.27,0-.54,0-.82,0-2.55-.25-4.79-1.6-5.56-3.37-1.78-4-4.37-5.15-8.12-6.39h0a10.34,10.34,0,0,1-6.16-5.85,7.73,7.73,0,0,1,.25-6.6c2.52-4.75,9.38-4.49,9.67-4.48a17.21,17.21,0,0,1,15.27,9.88c2.71,5.48,2.75,11.71,1.1,14.09A6.71,6.71,0,0,1,177.29,122.61Zm-13.78-12c4.06,1.34,7.34,2.75,9.48,7.63.44,1,2,1.85,3.7,2a4.7,4.7,0,0,0,4.37-1.76c1.09-1.56,1.13-6.93-1.27-11.78a14.85,14.85,0,0,0-13.33-8.61c-.06,0-5.72-.2-7.56,3.27a5.46,5.46,0,0,0-.15,4.69,8.12,8.12,0,0,0,4.76,4.54Z"/><path class="cls-214" d="M156.35,92.28a9.11,9.11,0,0,1,4.25-6l.86-.52a7,7,0,0,1,.94-.38l1-.34c.33-.09.67-.14,1-.2a7.28,7.28,0,0,1,2.06-.1,9.37,9.37,0,0,1,2,.23c.64.2,1.3.36,1.91.6s1.18.54,1.73.86a10.47,10.47,0,0,1,1.54,1.08,12.72,12.72,0,0,1,1.4,1.2,22,22,0,0,1,2.21,2.83,18.6,18.6,0,0,1,1.45,3.28l-.23.2-2.32-2.31c-.81-.73-1.68-1.38-2.52-2.07a16.18,16.18,0,0,0-5.82-2.71,10,10,0,0,0-6.27.53,12.29,12.29,0,0,0-5,4Z"/><path class="cls-214" d="M147.64,92.56c-1.93-.48-3.53-.88-5-1.13a11.67,11.67,0,0,0-3.73,0,14.84,14.84,0,0,0-3.63,1.2,9.36,9.36,0,0,0-1,.54l-1.12.56A17.11,17.11,0,0,1,130.69,95l-.25-.17,1.49-2.15c.61-.63,1.16-1.32,1.83-1.88a10,10,0,0,1,4.71-2.36,8.93,8.93,0,0,1,5.2.82,13,13,0,0,1,4.2,3.13Z"/><path class="cls-214" d="M163.45,106.41a5.28,5.28,0,0,1,3-2.34,5.64,5.64,0,0,1,7,3.22,7,7,0,0,1,.47,1.87,7.33,7.33,0,0,1-.2,1.9l-.19.06-.6-1.53a13.43,13.43,0,0,0-.8-1.42,5.61,5.61,0,0,0-5.52-2.52,10,10,0,0,0-3.1.94Z"/><path class="cls-214" d="M142.73,107c-1.28.12-2.34.19-3.26.31a8.74,8.74,0,0,0-2.32.66,8.64,8.64,0,0,0-2,1.31,4.62,4.62,0,0,0-.53.5l-.59.53a11.75,11.75,0,0,1-1.31,1.22l-.19-.06.52-1.59a13.16,13.16,0,0,1,.79-1.48,5.62,5.62,0,0,1,5.84-2.67,8.64,8.64,0,0,1,3.16,1.09Z"/><path class="cls-2" d="M157.15,65.71v1.06l-1.32-.57C156.69,65.88,157.15,65.71,157.15,65.71Z"/></svg>