<?xml version="1.0" encoding="UTF-8"?>
<svg xmlns="http://www.w3.org/2000/svg" xmlns:xlink="http://www.w3.org/1999/xlink" viewBox="0 0 64 64" width="64px" height="64px">
<defs>
<radialGradient id="radial0" gradientUnits="userSpaceOnUse" cx="87.34375" cy="87.34375" fx="87.34375" fy="87.34375" r="81.96875" gradientTransform="matrix(0.372093,0,0,0.372093,0,0)">
<stop offset="0" style="stop-color:rgb(72.156864%,93.725491%,100%);stop-opacity:1;"/>
<stop offset="0.642" style="stop-color:rgb(83.137256%,96.470588%,100%);stop-opacity:1;"/>
<stop offset="1" style="stop-color:rgb(89.803922%,98.039216%,100%);stop-opacity:1;"/>
</radialGradient>
<linearGradient id="linear0" gradientUnits="userSpaceOnUse" x1="86" y1="150.5" x2="86" y2="34.9375" gradientTransform="matrix(0.372093,0,0,0.372093,0,0)">
<stop offset="0" style="stop-color:rgb(100%,38.82353%,30.19608%);stop-opacity:1;"/>
<stop offset="0.204" style="stop-color:rgb(99.607843%,39.215687%,39.215687%);stop-opacity:1;"/>
<stop offset="0.521" style="stop-color:rgb(98.823529%,39.607844%,50.588238%);stop-opacity:1;"/>
<stop offset="0.794" style="stop-color:rgb(98.039216%,40.000001%,58.039218%);stop-opacity:1;"/>
<stop offset="0.989" style="stop-color:rgb(98.039216%,40.000001%,60.392159%);stop-opacity:1;"/>
<stop offset="1" style="stop-color:rgb(98.039216%,40.000001%,60.392159%);stop-opacity:1;"/>
</linearGradient>
<linearGradient id="linear1" gradientUnits="userSpaceOnUse" x1="52.40625" y1="131.6875" x2="52.40625" y2="26.875" gradientTransform="matrix(0.372093,0,0,0.372093,0,0)">
<stop offset="0" style="stop-color:rgb(100%,81.960785%,47.843137%);stop-opacity:1;"/>
<stop offset="1" style="stop-color:rgb(100%,81.176472%,64.313728%);stop-opacity:1;"/>
</linearGradient>
<linearGradient id="linear2" gradientUnits="userSpaceOnUse" x1="119.59375" y1="131.6875" x2="119.59375" y2="26.875" gradientTransform="matrix(0.372093,0,0,0.372093,0,0)">
<stop offset="0" style="stop-color:rgb(100%,83.92157%,52.156866%);stop-opacity:1;"/>
<stop offset="1" style="stop-color:rgb(100%,83.137256%,67.843139%);stop-opacity:1;"/>
</linearGradient>
<linearGradient id="linear3" gradientUnits="userSpaceOnUse" x1="41.65625" y1="83.3125" x2="41.65625" y2="26.875" gradientTransform="matrix(0.372093,0,0,0.372093,0,0)">
<stop offset="0" style="stop-color:rgb(100%,84.313726%,62.352943%);stop-opacity:1;"/>
<stop offset="1" style="stop-color:rgb(100%,83.529413%,68.627453%);stop-opacity:1;"/>
</linearGradient>
<linearGradient id="linear4" gradientUnits="userSpaceOnUse" x1="120.9375" y1="99.4375" x2="120.9375" y2="21.5" gradientTransform="matrix(0.372093,0,0,0.372093,0,0)">
<stop offset="0" style="stop-color:rgb(100%,38.82353%,30.19608%);stop-opacity:1;"/>
<stop offset="0.204" style="stop-color:rgb(99.607843%,39.215687%,39.215687%);stop-opacity:1;"/>
<stop offset="0.521" style="stop-color:rgb(98.823529%,39.607844%,50.588238%);stop-opacity:1;"/>
<stop offset="0.794" style="stop-color:rgb(98.039216%,40.000001%,58.039218%);stop-opacity:1;"/>
<stop offset="0.989" style="stop-color:rgb(98.039216%,40.000001%,60.392159%);stop-opacity:1;"/>
<stop offset="1" style="stop-color:rgb(98.039216%,40.000001%,60.392159%);stop-opacity:1;"/>
</linearGradient>
</defs>
<g id="surface69929638">
<path style=" stroke:none;fill-rule:nonzero;fill:url(#radial0);" d="M 60.355469 47 L 57 47 C 55.894531 47 55 46.105469 55 45 C 55 43.894531 55.894531 43 57 43 L 57.410156 43 C 58.550781 43 59.613281 42.277344 59.910156 41.179688 C 60.355469 39.515625 59.097656 38 57.5 38 L 42 38 L 42 27 L 56 27 C 58.335938 27 60.21875 24.972656 59.980469 22.589844 C 59.769531 20.515625 57.898438 19 55.8125 19 L 46 19 C 44.894531 19 44 18.105469 44 17 C 44 15.894531 44.894531 15 46 15 L 52.355469 15 C 53.664062 15 54.855469 14.058594 54.988281 12.757812 C 55.136719 11.261719 53.964844 10 52.5 10 L 44.5 10 C 43.671875 10 43 9.328125 43 8.5 C 43 7.671875 43.671875 7 44.5 7 L 48.355469 7 C 49.664062 7 50.855469 6.058594 50.988281 4.757812 C 51.136719 3.261719 49.964844 2 48.5 2 L 15.644531 2 C 14.335938 2 13.144531 2.941406 13.011719 4.242188 C 12.863281 5.738281 14.035156 7 15.5 7 L 19 7 C 20.105469 7 21 7.894531 21 9 C 21 10.105469 20.105469 11 19 11 L 6.1875 11 C 4.101562 11 2.230469 12.515625 2.019531 14.589844 C 1.78125 16.972656 3.664062 19 6 19 L 8.5 19 C 10.433594 19 12 20.566406 12 22.5 C 12 24.433594 10.433594 26 8.5 26 L 7 26 C 4.914062 26 3.042969 27.515625 2.832031 29.589844 C 2.589844 31.972656 4.476562 34 6.8125 34 L 22 34 L 22 46 L 7.589844 46 C 6.449219 46 5.386719 46.722656 5.089844 47.820312 C 4.644531 49.484375 5.902344 51 7.5 51 L 9 51 C 10.105469 51 11 51.894531 11 53 C 11 54.105469 10.105469 55 9 55 L 6.1875 55 C 4.101562 55 2.230469 56.515625 2.019531 58.589844 C 1.78125 60.972656 3.664062 63 6 63 L 54.8125 63 C 56.898438 63 58.769531 61.484375 58.980469 59.410156 C 59.21875 57.027344 57.335938 55 55 55 L 54.5 55 C 53.671875 55 53 54.328125 53 53.5 C 53 52.671875 53.671875 52 54.5 52 L 60.5 52 C 61.964844 52 63.136719 50.738281 62.988281 49.242188 C 62.855469 47.941406 61.664062 47 60.355469 47 Z M 60.355469 47 "/>
<path style=" stroke:none;fill-rule:nonzero;fill:url(#linear0);" d="M 55 13 L 36 13 L 36 19 L 28 19 L 28 13 L 9 13 C 5.6875 13 3 15.6875 3 19 L 3 47 C 3 50.3125 5.6875 53 9 53 L 28.140625 53 C 28.585938 54.722656 30.136719 56 32 56 C 33.863281 56 35.410156 54.722656 35.859375 53 L 55 53 C 58.3125 53 61 50.3125 61 47 L 61 19 C 61 15.6875 58.3125 13 55 13 Z M 55 13 "/>
<path style=" stroke:none;fill-rule:nonzero;fill:url(#linear1);" d="M 29 49 L 10 49 C 8.34375 49 7 47.65625 7 46 L 7 13 C 7 11.34375 8.34375 10 10 10 L 26 10 C 29.3125 10 32 12.6875 32 16 L 32 46 C 32 47.65625 30.65625 49 29 49 Z M 29 49 "/>
<path style=" stroke:none;fill-rule:nonzero;fill:url(#linear2);" d="M 35 49 L 54 49 C 55.65625 49 57 47.65625 57 46 L 57 13 C 57 11.34375 55.65625 10 54 10 L 38 10 C 34.6875 10 32 12.6875 32 16 L 32 46 C 32 47.65625 33.34375 49 35 49 Z M 35 49 "/>
<path style=" stroke:none;fill-rule:nonzero;fill:url(#linear3);" d="M 7 13 C 7 11.34375 8.34375 10 10 10 L 22 10 C 23.214844 10 24.175781 11.082031 23.972656 12.335938 C 23.8125 13.320312 22.890625 14 21.894531 14 L 14.5 14 C 13.671875 14 13 14.671875 13 15.5 C 13 16.328125 13.671875 17 14.5 17 L 16 17 C 17.214844 17 18.175781 18.082031 17.972656 19.335938 C 17.8125 20.320312 16.890625 21 15.894531 21 L 7 21 Z M 16 27 C 14.894531 27 14 27.894531 14 29 C 14 30.105469 14.894531 31 16 31 C 17.105469 31 18 30.105469 18 29 C 18 27.894531 17.105469 27 16 27 Z M 16 27 "/>
<path style=" stroke:none;fill-rule:nonzero;fill:rgb(100%,85.490197%,72.549021%);fill-opacity:1;" d="M 46.972656 18.664062 C 46.8125 17.679688 45.890625 17 44.894531 17 L 38.5 17 C 37.671875 17 37 16.328125 37 15.5 C 37 14.671875 37.671875 14 38.5 14 L 41 14 C 42.214844 14 43.175781 12.917969 42.972656 11.664062 C 42.8125 10.679688 41.890625 10 40.894531 10 L 38 10 C 34.6875 10 32 12.6875 32 16 L 32 28 L 36.894531 28 C 37.890625 28 38.8125 27.320312 38.972656 26.335938 C 39.175781 25.082031 38.214844 24 37 24 L 36.394531 24 C 35.566406 24 34.894531 23.328125 34.894531 22.5 C 34.894531 21.671875 35.566406 21 36.394531 21 L 45 21 C 46.214844 21 47.175781 19.917969 46.972656 18.664062 Z M 46.972656 18.664062 "/>
<path style=" stroke:none;fill-rule:nonzero;fill:url(#linear4);" d="M 48.589844 37 L 48.585938 37 C 48.210938 37 47.851562 36.851562 47.585938 36.585938 L 45 34 L 42.414062 36.585938 C 42.148438 36.851562 41.789062 37 41.414062 37 L 41.410156 37 C 40.632812 37 40 36.367188 40 35.589844 L 40 11 C 40 9.34375 41.34375 8 43 8 L 47 8 C 48.65625 8 50 9.34375 50 11 L 50 35.589844 C 50 36.367188 49.367188 37 48.589844 37 Z M 48.589844 37 "/>
</g>
</svg>
